<svg width="97" height="59" viewBox="0 0 97 59" fill="none" xmlns="http://www.w3.org/2000/svg">
    <!--    header-->
    <g id="logoColor">
        <g clip-path="url(#clip0_2_5840)">
            <path d="M12.5581 0V3.83066C11.5028 3.83066 10.6796 3.98157 10.0882 4.28338C9.49679 4.57357 9.24169 5.15977 9.32287 6.04199L9.86206 11.1785C10.0012 12.4786 9.85626 13.5292 9.42722 14.3301C9.00978 15.131 8.36623 15.7464 7.49655 16.1758C6.63848 16.5938 5.62386 16.8897 4.45271 17.0638C5.69343 17.2495 6.74284 17.5514 7.60092 17.9693C8.45899 18.3871 9.08516 18.9907 9.47941 19.7801C9.87366 20.5695 10.0012 21.6258 9.86206 22.9492L9.32287 28.0857C9.24169 28.9679 9.49679 29.5541 10.0882 29.8443C10.6796 30.146 11.5028 30.297 12.5581 30.297V34.1277C9.35765 34.1277 7.1081 33.6401 5.80939 32.6651C4.52229 31.7016 4.00048 30.0475 4.24398 27.7026L4.76579 22.7227C4.85856 21.8406 4.70782 21.1499 4.31357 20.6507C3.93091 20.1516 3.36272 19.8033 2.60901 19.6059C1.85529 19.3971 0.985626 19.2926 0 19.2926V14.8351C0.97403 14.8351 1.8379 14.7364 2.59162 14.5391C3.34533 14.3301 3.91932 13.9761 4.31357 13.477C4.70782 12.9778 4.85856 12.2871 4.76579 11.4049L4.24398 6.45987C3.98889 4.06861 4.51068 2.39706 5.80939 1.4452C7.1081 0.481734 9.35765 0 12.5581 0Z"
                  fill="url(#paint0_linear_2_5840)"/>
            <path d="M27.633 4.50977C30.5087 4.50977 32.6771 5.62414 34.1381 7.85288C35.6108 10.07 36.3471 13.1636 36.3471 17.1335C36.3471 21.115 35.6108 24.2318 34.1381 26.4838C32.6771 28.7242 30.5087 29.8443 27.633 29.8443C24.7342 29.8443 22.5541 28.7242 21.0931 26.4838C19.6436 24.2318 18.9189 21.115 18.9189 17.1335C18.9189 13.1636 19.6436 10.07 21.0931 7.85288C22.5541 5.62414 24.7342 4.50977 27.633 4.50977ZM27.633 8.49713C26.4039 8.49713 25.5052 9.15879 24.937 10.4821C24.3689 11.7938 24.0847 14.0109 24.0847 17.1335C24.0847 18.1551 24.1022 19.0663 24.1369 19.8672C24.1718 20.6566 24.224 21.3589 24.2935 21.9741L30.1724 9.66374C29.8942 9.22264 29.5463 8.92083 29.1289 8.75831C28.7231 8.5842 28.2244 8.49713 27.633 8.49713ZM31.1465 17.1335C31.1465 15.7986 31.1175 14.6726 31.0595 13.7555L25.511 25.2302C25.7662 25.4739 26.0676 25.6422 26.4154 25.7351C26.775 25.8279 27.1808 25.8744 27.633 25.8744C28.4564 25.8744 29.1231 25.5958 29.6333 25.0387C30.1551 24.4815 30.5377 23.5644 30.7812 22.2875C31.0248 20.999 31.1465 19.281 31.1465 17.1335Z"
                  fill="url(#paint1_linear_2_5840)"/>
            <path d="M48.5 4.50977C51.3758 4.50977 53.5442 5.62414 55.0052 7.85288C56.4779 10.07 57.2141 13.1636 57.2141 17.1335C57.2141 21.115 56.4779 24.2318 55.0052 26.4838C53.5442 28.7242 51.3758 29.8443 48.5 29.8443C45.6011 29.8443 43.4212 28.7242 41.9602 26.4838C40.5107 24.2318 39.786 21.115 39.786 17.1335C39.786 13.1636 40.5107 10.07 41.9602 7.85288C43.4212 5.62414 45.6011 4.50977 48.5 4.50977ZM48.5 8.49713C47.271 8.49713 46.3723 9.15879 45.8041 10.4821C45.2359 11.7938 44.9518 14.0109 44.9518 17.1335C44.9518 18.1551 44.9692 19.0663 45.004 19.8672C45.0387 20.6566 45.0909 21.3589 45.1605 21.9741L51.0395 9.66374C50.7611 9.22264 50.4133 8.92083 49.9959 8.75831C49.59 8.5842 49.0914 8.49713 48.5 8.49713ZM52.0135 17.1335C52.0135 15.7986 51.9846 14.6726 51.9266 13.7555L46.3781 25.2302C46.6331 25.4739 46.9347 25.6422 47.2825 25.7351C47.642 25.8279 48.0478 25.8744 48.5 25.8744C49.3233 25.8744 49.99 25.5958 50.5003 25.0387C51.022 24.4815 51.4048 23.5644 51.6482 22.2875C51.8917 20.999 52.0135 19.281 52.0135 17.1335Z"
                  fill="url(#paint2_linear_2_5840)"/>
            <path d="M68.1146 29.8095L62.8966 28.1902L71.889 9.26321H61.2964V5.11914H77.4549V8.84532L68.1146 29.8095Z"
                  fill="url(#paint3_linear_2_5840)"/>
            <path d="M84.4419 0C87.6423 0 89.8861 0.481734 91.1732 1.4452C92.4719 2.40867 92.9995 4.06862 92.756 6.42505L92.2342 11.4049C92.1414 12.2871 92.2921 12.9778 92.6864 13.477C93.0807 13.9761 93.6488 14.3301 94.3909 14.5391C95.1447 14.7364 96.0144 14.8351 97 14.8351V19.2926C96.0259 19.2926 95.1621 19.3971 94.4083 19.6059C93.6547 19.8033 93.0807 20.1516 92.6864 20.6507C92.2921 21.1499 92.1414 21.8406 92.2342 22.7227L92.756 27.6678C93.0227 30.0475 92.5009 31.719 91.1905 32.6824C89.8918 33.646 87.6423 34.1277 84.4419 34.1277V30.297C85.5088 30.297 86.3378 30.146 86.9291 29.8443C87.5206 29.5541 87.7699 28.9679 87.6772 28.0857L87.1379 22.9492C86.9988 21.6374 87.1379 20.5868 87.5553 19.7976C87.9844 18.9965 88.6338 18.3871 89.5035 17.9693C90.373 17.5397 91.3935 17.238 92.5646 17.0638C91.3239 16.8781 90.2688 16.5763 89.3991 16.1584C88.5409 15.7405 87.9149 15.1369 87.5206 14.3476C87.1263 13.5466 86.9988 12.4903 87.1379 11.1785L87.6772 6.04199C87.7699 5.15977 87.5147 4.57357 86.9118 4.28338C86.3204 3.98157 85.4971 3.83066 84.4419 3.83066V0Z"
                  fill="url(#paint4_linear_2_5840)"/>
            <path d="M12.2746 42.1621C13.2417 42.1621 14.0209 42.4024 14.6122 42.883C15.2037 43.3635 15.635 44.0426 15.9064 44.9202C16.1846 45.7977 16.3238 46.839 16.3238 48.0439C16.3238 49.1862 16.1568 50.2065 15.8229 51.1049C15.4889 51.9964 15.0054 52.6999 14.3723 53.2153C13.7391 53.7238 12.9703 53.978 12.0659 53.978C10.9875 53.978 10.1108 53.5914 9.43597 52.8182V57.9061L6.13818 58.2509V42.5278H9.06028L9.20639 43.771C9.65862 43.1929 10.1526 42.782 10.6883 42.5382C11.224 42.2875 11.7528 42.1621 12.2746 42.1621ZM11.2519 44.5964C10.8692 44.5964 10.5318 44.7113 10.2396 44.9411C9.94735 45.1709 9.67948 45.4843 9.43597 45.8813V50.5617C9.66557 50.903 9.9056 51.1537 10.1561 51.3139C10.4135 51.474 10.7161 51.5542 11.064 51.5542C11.6484 51.5542 12.1041 51.2895 12.4312 50.7601C12.7582 50.2238 12.9216 49.3325 12.9216 48.0857C12.9216 47.1663 12.8555 46.456 12.7233 45.9545C12.5912 45.4461 12.3999 45.0943 12.1493 44.8993C11.8989 44.6973 11.5997 44.5964 11.2519 44.5964Z"
                  fill="url(#paint5_linear_2_5840)"/>
            <path d="M27.9881 50.4259C27.9881 50.8437 28.0437 51.1467 28.1551 51.3348C28.2733 51.5228 28.4612 51.6657 28.7186 51.7631L28.0403 53.9362C27.3862 53.8735 26.8332 53.7307 26.3809 53.5078C25.9356 53.278 25.5843 52.9332 25.3269 52.4736C24.9025 52.982 24.3598 53.3615 23.6989 53.6123C23.0379 53.856 22.3631 53.978 21.6743 53.978C20.5332 53.978 19.6218 53.6541 18.94 53.0063C18.2651 52.3517 17.9277 51.5124 17.9277 50.4886C17.9277 49.2837 18.3974 48.3538 19.3366 47.6991C20.2827 47.0445 21.6116 46.7172 23.3231 46.7172H24.8155V46.2992C24.8155 45.164 24.085 44.5964 22.6239 44.5964C22.2692 44.5964 21.8134 44.6486 21.2568 44.7531C20.7002 44.8505 20.1436 44.9932 19.587 45.1813L18.8252 42.9875C19.5419 42.7159 20.2863 42.5103 21.0585 42.3711C21.8377 42.2318 22.5335 42.1621 23.1457 42.1621C24.7946 42.1621 26.0121 42.4999 26.7983 43.1754C27.5915 43.8441 27.9881 44.8122 27.9881 46.0798V50.4259ZM22.8117 51.6169C23.1666 51.6169 23.5389 51.5124 23.9285 51.3034C24.3181 51.0876 24.6137 50.7846 24.8155 50.3946V48.5977H24.0015C23.0831 48.5977 22.4083 48.7404 21.9769 49.0259C21.5456 49.3045 21.3299 49.7155 21.3299 50.2588C21.3299 50.6836 21.4585 51.0179 21.716 51.2616C21.9804 51.4985 22.3457 51.6169 22.8117 51.6169Z"
                  fill="url(#paint6_linear_2_5840)"/>
            <path d="M41.6354 42.5276L37.9411 53.6225H34.0589L30.3226 42.5276H33.8814L36.0417 51.0943L38.2958 42.5276H41.6354Z"
                  fill="url(#paint7_linear_2_5840)"/>
            <path d="M53.0285 50.4259C53.0285 50.8437 53.0841 51.1467 53.1955 51.3348C53.3137 51.5228 53.5016 51.6657 53.759 51.7631L53.0807 53.9362C52.4266 53.8735 51.8736 53.7307 51.4214 53.5078C50.976 53.278 50.6248 52.9332 50.3673 52.4736C49.9429 52.982 49.4002 53.3615 48.7393 53.6123C48.0783 53.856 47.4035 53.978 46.7147 53.978C45.5736 53.978 44.6622 53.6541 43.9804 53.0063C43.3055 52.3517 42.9681 51.5124 42.9681 50.4886C42.9681 49.2837 43.4378 48.3538 44.377 47.6991C45.3232 47.0445 46.6521 46.7172 48.3635 46.7172H49.8559V46.2992C49.8559 45.164 49.1254 44.5964 47.6644 44.5964C47.3096 44.5964 46.8538 44.6486 46.2972 44.7531C45.7406 44.8505 45.184 44.9932 44.6275 45.1813L43.8657 42.9875C44.5823 42.7159 45.3267 42.5103 46.0989 42.3711C46.8782 42.2318 47.5739 42.1621 48.1861 42.1621C49.835 42.1621 51.0525 42.4999 51.8387 43.1754C52.6319 43.8441 53.0285 44.8122 53.0285 46.0798V50.4259ZM47.8521 51.6169C48.207 51.6169 48.5793 51.5124 48.9689 51.3034C49.3585 51.0876 49.6541 50.7846 49.8559 50.3946V48.5977H49.0419C48.1235 48.5977 47.4487 48.7404 47.0173 49.0259C46.586 49.3045 46.3703 49.7155 46.3703 50.2588C46.3703 50.6836 46.4991 51.0179 46.7564 51.2616C47.0208 51.4985 47.3861 51.6169 47.8521 51.6169Z"
                  fill="url(#paint8_linear_2_5840)"/>
            <path d="M56.2189 53.6227V42.5278H59.0993L59.3289 43.8128C59.8229 43.2556 60.3446 42.8412 60.8943 42.5696C61.4439 42.2979 62.0701 42.1621 62.7728 42.1621C63.7189 42.1621 64.4634 42.4511 65.0061 43.0293C65.5487 43.6074 65.82 44.4222 65.82 45.4739V53.6227H62.5223V46.4246C62.5223 45.7421 62.4458 45.2685 62.2927 45.0037C62.1466 44.7322 61.8683 44.5964 61.4577 44.5964C61.1099 44.5964 60.776 44.7077 60.4559 44.9307C60.1428 45.1535 59.8297 45.4634 59.5168 45.8604V53.6227H56.2189Z"
                  fill="url(#paint9_linear_2_5840)"/>
            <path d="M76.9314 42.1621C77.7174 42.1621 78.2985 42.4199 78.6742 42.9353C79.0568 43.4436 79.2481 44.269 79.2481 45.4112V53.6227H76.42V45.7873C76.42 45.3973 76.3817 45.1222 76.3052 44.962C76.2356 44.8017 76.0894 44.7217 75.8668 44.7217C75.693 44.7217 75.512 44.774 75.3241 44.8784C75.1433 44.9759 74.9415 45.164 74.7189 45.4425V53.6227H72.4021V45.7873C72.4021 45.3973 72.3638 45.1222 72.2873 44.962C72.2177 44.8017 72.0716 44.7217 71.8489 44.7217C71.6751 44.7217 71.4941 44.774 71.3062 44.8784C71.1254 44.9759 70.9236 45.164 70.701 45.4425V53.6227H67.8311V42.5278H70.2522L70.4714 43.6038C70.8193 43.1302 71.1707 42.7715 71.5254 42.5278C71.8803 42.284 72.3012 42.1621 72.7882 42.1621C73.2056 42.1621 73.5604 42.27 73.8527 42.486C74.1519 42.695 74.3641 43.0257 74.4893 43.4784C74.8233 43.0884 75.192 42.7715 75.5955 42.5278C75.9991 42.284 76.4443 42.1621 76.9314 42.1621Z"
                  fill="url(#paint10_linear_2_5840)"/>
            <path d="M91.1004 40.7517L91.8728 43.1754C91.4832 43.3287 91.0274 43.4401 90.5057 43.5097C89.9838 43.5794 89.3751 43.6142 88.6794 43.6142C89.3751 43.9137 89.9038 44.2863 90.2656 44.7321C90.6344 45.1708 90.8187 45.7489 90.8187 46.4664C90.8187 47.1837 90.6274 47.8245 90.2448 48.3886C89.862 48.9458 89.3195 49.3846 88.6168 49.705C87.9141 50.0254 87.0826 50.1856 86.1225 50.1856C85.6633 50.1856 85.2354 50.1438 84.8389 50.0602C84.7205 50.1229 84.6302 50.2133 84.5676 50.3318C84.5049 50.4502 84.4736 50.5721 84.4736 50.6975C84.4736 50.8716 84.5431 51.0283 84.6824 51.1675C84.8285 51.3069 85.1659 51.3765 85.6946 51.3765H87.5105C88.3732 51.3765 89.1176 51.5158 89.7438 51.7944C90.3769 52.0729 90.8674 52.4526 91.2153 52.9331C91.5631 53.4137 91.7371 53.964 91.7371 54.5839C91.7371 55.7191 91.2397 56.6141 90.2448 57.2688C89.2498 57.9234 87.7714 58.2509 85.8094 58.2509C84.3901 58.2509 83.2908 58.1046 82.5117 57.812C81.7393 57.5265 81.2002 57.1156 80.8941 56.5792C80.5949 56.0499 80.4453 55.4196 80.4453 54.6882H83.3673C83.3673 55.0087 83.43 55.2699 83.5552 55.4718C83.6874 55.6808 83.9344 55.8341 84.2962 55.9315C84.6649 56.029 85.1972 56.0778 85.8929 56.0778C86.5956 56.0778 87.1313 56.022 87.5 55.9107C87.8688 55.7992 88.1192 55.646 88.2515 55.4509C88.3906 55.2629 88.4602 55.0505 88.4602 54.8136C88.4602 54.4863 88.3314 54.2217 88.0741 54.0197C87.8166 53.8177 87.4097 53.7167 86.853 53.7167H85.0893C83.8926 53.7167 83.0229 53.4973 82.4803 53.0585C81.9376 52.6128 81.6663 52.0938 81.6663 51.5019C81.6663 51.091 81.7741 50.701 81.9898 50.3318C82.2124 49.9627 82.5221 49.6527 82.9187 49.402C82.209 49.0258 81.701 48.5836 81.3949 48.0752C81.0888 47.5598 80.9358 46.9434 80.9358 46.226C80.9358 45.3902 81.148 44.6729 81.5724 44.0739C81.9968 43.4679 82.5811 43.0013 83.3256 42.674C84.077 42.3467 84.9329 42.1829 85.8929 42.1829C86.7208 42.1968 87.441 42.1412 88.0532 42.0158C88.6654 41.8834 89.2151 41.7059 89.7021 41.4829C90.189 41.2531 90.6552 41.0093 91.1004 40.7517ZM85.9764 44.3246C85.4546 44.3246 85.0406 44.4918 84.7345 44.8262C84.4283 45.1535 84.2753 45.6062 84.2753 46.1843C84.2753 46.7971 84.4319 47.2673 84.745 47.5946C85.058 47.9219 85.4686 48.0857 85.9764 48.0857C87.1034 48.0857 87.667 47.4379 87.667 46.1425C87.667 44.9306 87.1034 44.3246 85.9764 44.3246Z"
                  fill="url(#paint11_linear_2_5840)"/>
        </g>
        <defs>
            <linearGradient id="paint0_linear_2_5840" x1="-2.05005" y1="36.7549" x2="99.9719" y2="0.679714"
                            gradientUnits="userSpaceOnUse">
                <stop stop-color="#00C0FD"/>
                <stop offset="1" stop-color="#E70FAA"/>
            </linearGradient>
            <linearGradient id="paint1_linear_2_5840" x1="-2.05004" y1="36.755" x2="99.972" y2="0.679755"
                            gradientUnits="userSpaceOnUse">
                <stop stop-color="#00C0FD"/>
                <stop offset="1" stop-color="#E70FAA"/>
            </linearGradient>
            <linearGradient id="paint2_linear_2_5840" x1="-2.05001" y1="36.755" x2="99.972" y2="0.679757"
                            gradientUnits="userSpaceOnUse">
                <stop stop-color="#00C0FD"/>
                <stop offset="1" stop-color="#E70FAA"/>
            </linearGradient>
            <linearGradient id="paint3_linear_2_5840" x1="-2.05005" y1="36.7549" x2="99.9719" y2="0.679708"
                            gradientUnits="userSpaceOnUse">
                <stop stop-color="#00C0FD"/>
                <stop offset="1" stop-color="#E70FAA"/>
            </linearGradient>
            <linearGradient id="paint4_linear_2_5840" x1="-2.05008" y1="36.7549" x2="99.9719" y2="0.679722"
                            gradientUnits="userSpaceOnUse">
                <stop stop-color="#00C0FD"/>
                <stop offset="1" stop-color="#E70FAA"/>
            </linearGradient>
            <linearGradient id="paint5_linear_2_5840" x1="-0.244359" y1="59.3455" x2="93.6381" y2="39.507"
                            gradientUnits="userSpaceOnUse">
                <stop stop-color="#13B0F5"/>
                <stop offset="1" stop-color="#CA24B4"/>
            </linearGradient>
            <linearGradient id="paint6_linear_2_5840" x1="-0.24451" y1="59.3455" x2="93.638" y2="39.507"
                            gradientUnits="userSpaceOnUse">
                <stop stop-color="#13B0F5"/>
                <stop offset="1" stop-color="#CA24B4"/>
            </linearGradient>
            <linearGradient id="paint7_linear_2_5840" x1="-0.244492" y1="59.3453" x2="93.638" y2="39.5068"
                            gradientUnits="userSpaceOnUse">
                <stop stop-color="#13B0F5"/>
                <stop offset="1" stop-color="#CA24B4"/>
            </linearGradient>
            <linearGradient id="paint8_linear_2_5840" x1="-0.244461" y1="59.3455" x2="93.638" y2="39.507"
                            gradientUnits="userSpaceOnUse">
                <stop stop-color="#13B0F5"/>
                <stop offset="1" stop-color="#CA24B4"/>
            </linearGradient>
            <linearGradient id="paint9_linear_2_5840" x1="-0.244434" y1="59.3455" x2="93.6381" y2="39.507"
                            gradientUnits="userSpaceOnUse">
                <stop stop-color="#13B0F5"/>
                <stop offset="1" stop-color="#CA24B4"/>
            </linearGradient>
            <linearGradient id="paint10_linear_2_5840" x1="-0.244473" y1="59.3455" x2="93.638" y2="39.507"
                            gradientUnits="userSpaceOnUse">
                <stop stop-color="#13B0F5"/>
                <stop offset="1" stop-color="#CA24B4"/>
            </linearGradient>
            <linearGradient id="paint11_linear_2_5840" x1="-0.244413" y1="59.3454" x2="93.6381" y2="39.5069"
                            gradientUnits="userSpaceOnUse">
                <stop stop-color="#13B0F5"/>
                <stop offset="1" stop-color="#CA24B4"/>
            </linearGradient>
            <clipPath id="clip0_2_5840">
                <rect width="97" height="59" fill="white"/>
            </clipPath>
        </defs>
    </g>
    <g id="logo">
        <g clip-path="url(#clip0_2_5989)">
            <path d="M12.5581 0V3.83066C11.5028 3.83066 10.6796 3.98157 10.0882 4.28338C9.49679 4.57357 9.24169 5.15977 9.32287 6.04199L9.86206 11.1785C10.0012 12.4786 9.85626 13.5292 9.42722 14.3301C9.00978 15.131 8.36623 15.7464 7.49655 16.1758C6.63848 16.5938 5.62386 16.8897 4.45271 17.0638C5.69343 17.2495 6.74284 17.5514 7.60092 17.9693C8.45899 18.3871 9.08516 18.9907 9.47941 19.7801C9.87366 20.5695 10.0012 21.6258 9.86206 22.9492L9.32287 28.0857C9.24169 28.9679 9.49679 29.5541 10.0882 29.8443C10.6796 30.146 11.5028 30.297 12.5581 30.297V34.1277C9.35765 34.1277 7.1081 33.6401 5.80939 32.6651C4.52229 31.7016 4.00048 30.0475 4.24398 27.7026L4.76579 22.7227C4.85856 21.8406 4.70782 21.1499 4.31357 20.6507C3.93091 20.1516 3.36272 19.8033 2.60901 19.6059C1.85529 19.3971 0.985626 19.2926 0 19.2926V14.8351C0.97403 14.8351 1.8379 14.7364 2.59162 14.5391C3.34533 14.3301 3.91932 13.9761 4.31357 13.477C4.70782 12.9778 4.85856 12.2871 4.76579 11.4049L4.24398 6.45987C3.98889 4.06861 4.51068 2.39706 5.80939 1.4452C7.1081 0.481734 9.35765 0 12.5581 0Z"
                  fill="#A7A7A7"/>
            <path d="M27.633 4.5097C30.5087 4.5097 32.6771 5.62408 34.1381 7.85282C35.6108 10.07 36.3471 13.1635 36.3471 17.1335C36.3471 21.115 35.6108 24.2318 34.1381 26.4837C32.6771 28.7241 30.5087 29.8443 27.633 29.8443C24.7342 29.8443 22.5541 28.7241 21.0931 26.4837C19.6436 24.2318 18.9189 21.115 18.9189 17.1335C18.9189 13.1635 19.6436 10.07 21.0931 7.85282C22.5541 5.62408 24.7342 4.5097 27.633 4.5097ZM27.633 8.49707C26.4039 8.49707 25.5052 9.15873 24.937 10.482C24.3689 11.7938 24.0847 14.0109 24.0847 17.1335C24.0847 18.155 24.1022 19.0662 24.1369 19.8671C24.1718 20.6565 24.224 21.3588 24.2935 21.974L30.1724 9.66367C29.8942 9.22258 29.5463 8.92077 29.1289 8.75825C28.7231 8.58413 28.2244 8.49707 27.633 8.49707ZM31.1465 17.1335C31.1465 15.7986 31.1175 14.6725 31.0595 13.7555L25.511 25.2301C25.7662 25.4738 26.0676 25.6421 26.4154 25.735C26.775 25.8278 27.1808 25.8743 27.633 25.8743C28.4564 25.8743 29.1231 25.5958 29.6333 25.0386C30.1551 24.4814 30.5377 23.5643 30.7812 22.2875C31.0248 20.9989 31.1465 19.2809 31.1465 17.1335Z"
                  fill="#A7A7A7"/>
            <path d="M48.5 4.5097C51.3758 4.5097 53.5442 5.62408 55.0052 7.85282C56.4779 10.07 57.2141 13.1635 57.2141 17.1335C57.2141 21.115 56.4779 24.2318 55.0052 26.4837C53.5442 28.7241 51.3758 29.8443 48.5 29.8443C45.6011 29.8443 43.4212 28.7241 41.9602 26.4837C40.5107 24.2318 39.786 21.115 39.786 17.1335C39.786 13.1635 40.5107 10.07 41.9602 7.85282C43.4212 5.62408 45.6011 4.5097 48.5 4.5097ZM48.5 8.49707C47.271 8.49707 46.3723 9.15873 45.8041 10.482C45.2359 11.7938 44.9518 14.0109 44.9518 17.1335C44.9518 18.155 44.9692 19.0662 45.004 19.8671C45.0387 20.6565 45.0909 21.3588 45.1605 21.974L51.0395 9.66367C50.7611 9.22258 50.4133 8.92077 49.9959 8.75825C49.59 8.58413 49.0914 8.49707 48.5 8.49707ZM52.0135 17.1335C52.0135 15.7986 51.9846 14.6725 51.9266 13.7555L46.3781 25.2301C46.6331 25.4738 46.9347 25.6421 47.2825 25.735C47.642 25.8278 48.0478 25.8743 48.5 25.8743C49.3233 25.8743 49.99 25.5958 50.5003 25.0386C51.022 24.4814 51.4048 23.5643 51.6482 22.2875C51.8917 20.9989 52.0135 19.2809 52.0135 17.1335Z"
                  fill="#A7A7A7"/>
            <path d="M68.1146 29.8095L62.8966 28.1902L71.889 9.26321H61.2964V5.11914H77.4549V8.84532L68.1146 29.8095Z"
                  fill="#A7A7A7"/>
            <path d="M84.4419 0C87.6423 0 89.8861 0.481734 91.1732 1.4452C92.4719 2.40867 92.9995 4.06862 92.756 6.42505L92.2342 11.4049C92.1414 12.2871 92.2921 12.9778 92.6864 13.477C93.0807 13.9761 93.6488 14.3301 94.3909 14.5391C95.1447 14.7364 96.0144 14.8351 97 14.8351V19.2926C96.0259 19.2926 95.1621 19.3971 94.4083 19.6059C93.6547 19.8033 93.0807 20.1516 92.6864 20.6507C92.2921 21.1499 92.1414 21.8406 92.2342 22.7227L92.756 27.6678C93.0227 30.0475 92.5009 31.719 91.1905 32.6824C89.8918 33.646 87.6423 34.1277 84.4419 34.1277V30.297C85.5088 30.297 86.3378 30.146 86.9291 29.8443C87.5206 29.5541 87.7699 28.9679 87.6772 28.0857L87.1379 22.9492C86.9988 21.6374 87.1379 20.5868 87.5553 19.7976C87.9844 18.9965 88.6338 18.3871 89.5035 17.9693C90.373 17.5397 91.3935 17.238 92.5646 17.0638C91.3239 16.8781 90.2688 16.5763 89.3991 16.1584C88.5409 15.7405 87.9149 15.1369 87.5206 14.3476C87.1263 13.5466 86.9988 12.4903 87.1379 11.1785L87.6772 6.04199C87.7699 5.15977 87.5147 4.57357 86.9118 4.28338C86.3204 3.98157 85.4971 3.83066 84.4419 3.83066V0Z"
                  fill="#A7A7A7"/>
            <path d="M12.2746 42.162C13.2417 42.162 14.0209 42.4023 14.6122 42.8829C15.2037 43.3634 15.635 44.0425 15.9064 44.9201C16.1846 45.7976 16.3238 46.8388 16.3238 48.0438C16.3238 49.1861 16.1568 50.2064 15.8229 51.1048C15.4889 51.9963 15.0054 52.6998 14.3723 53.2151C13.7391 53.7237 12.9703 53.9778 12.0659 53.9778C10.9875 53.9778 10.1108 53.5913 9.43597 52.8181V57.906L6.13818 58.2508V42.5277H9.06028L9.20639 43.7708C9.65862 43.1928 10.1526 42.7819 10.6883 42.5381C11.224 42.2874 11.7528 42.162 12.2746 42.162ZM11.2519 44.5962C10.8692 44.5962 10.5318 44.7112 10.2396 44.941C9.94735 45.1707 9.67948 45.4842 9.43597 45.8812V50.5616C9.66557 50.9028 9.9056 51.1536 10.1561 51.3137C10.4135 51.4739 10.7161 51.554 11.064 51.554C11.6484 51.554 12.1041 51.2894 12.4312 50.76C12.7582 50.2237 12.9216 49.3323 12.9216 48.0856C12.9216 47.1662 12.8555 46.4558 12.7233 45.9543C12.5912 45.446 12.3999 45.0942 12.1493 44.8992C11.8989 44.6971 11.5997 44.5962 11.2519 44.5962Z"
                  fill="#A7A7A7"/>
            <path d="M27.9881 50.4258C27.9881 50.8436 28.0437 51.1466 28.1551 51.3346C28.2733 51.5227 28.4612 51.6655 28.7186 51.763L28.0403 53.9361C27.3862 53.8734 26.8332 53.7305 26.3809 53.5077C25.9356 53.2778 25.5843 52.9331 25.3269 52.4735C24.9025 52.9818 24.3598 53.3614 23.6989 53.6122C23.0379 53.8559 22.3631 53.9778 21.6743 53.9778C20.5332 53.9778 19.6218 53.654 18.94 53.0062C18.2651 52.3515 17.9277 51.5123 17.9277 50.4885C17.9277 49.2835 18.3974 48.3537 19.3366 47.699C20.2827 47.0444 21.6116 46.717 23.3231 46.717H24.8155V46.2991C24.8155 45.1639 24.085 44.5962 22.6239 44.5962C22.2692 44.5962 21.8134 44.6485 21.2568 44.7529C20.7002 44.8504 20.1436 44.9931 19.587 45.1812L18.8252 42.9874C19.5419 42.7157 20.2863 42.5102 21.0585 42.3709C21.8377 42.2317 22.5335 42.162 23.1457 42.162C24.7946 42.162 26.0121 42.4998 26.7983 43.1753C27.5915 43.844 27.9881 44.8121 27.9881 46.0797V50.4258ZM22.8117 51.6167C23.1666 51.6167 23.5389 51.5123 23.9285 51.3033C24.3181 51.0875 24.6137 50.7845 24.8155 50.3945V48.5975H24.0015C23.0831 48.5975 22.4083 48.7402 21.9769 49.0258C21.5456 49.3044 21.3299 49.7153 21.3299 50.2586C21.3299 50.6834 21.4585 51.0178 21.716 51.2615C21.9804 51.4984 22.3457 51.6167 22.8117 51.6167Z"
                  fill="#A7A7A7"/>
            <path d="M41.6354 42.5277L37.9411 53.6227H34.0589L30.3226 42.5277H33.8814L36.0417 51.0944L38.2958 42.5277H41.6354Z"
                  fill="#A7A7A7"/>
            <path d="M53.0285 50.4258C53.0285 50.8436 53.0841 51.1466 53.1955 51.3346C53.3137 51.5227 53.5016 51.6655 53.759 51.763L53.0807 53.9361C52.4266 53.8734 51.8736 53.7305 51.4214 53.5077C50.976 53.2778 50.6248 52.9331 50.3673 52.4735C49.9429 52.9818 49.4002 53.3614 48.7393 53.6122C48.0783 53.8559 47.4035 53.9778 46.7147 53.9778C45.5736 53.9778 44.6622 53.654 43.9804 53.0062C43.3055 52.3515 42.9681 51.5123 42.9681 50.4885C42.9681 49.2835 43.4378 48.3537 44.377 47.699C45.3232 47.0444 46.6521 46.717 48.3635 46.717H49.8559V46.2991C49.8559 45.1639 49.1254 44.5962 47.6644 44.5962C47.3096 44.5962 46.8538 44.6485 46.2972 44.7529C45.7406 44.8504 45.184 44.9931 44.6275 45.1812L43.8657 42.9874C44.5823 42.7157 45.3267 42.5102 46.0989 42.3709C46.8782 42.2317 47.5739 42.162 48.1861 42.162C49.835 42.162 51.0525 42.4998 51.8387 43.1753C52.6319 43.844 53.0285 44.8121 53.0285 46.0797V50.4258ZM47.8521 51.6167C48.207 51.6167 48.5793 51.5123 48.9689 51.3033C49.3585 51.0875 49.6541 50.7845 49.8559 50.3945V48.5975H49.0419C48.1235 48.5975 47.4487 48.7402 47.0173 49.0258C46.586 49.3044 46.3703 49.7153 46.3703 50.2586C46.3703 50.6834 46.4991 51.0178 46.7564 51.2615C47.0208 51.4984 47.3861 51.6167 47.8521 51.6167Z"
                  fill="#A7A7A7"/>
            <path d="M56.2189 53.6226V42.5277H59.0993L59.3289 43.8126C59.8229 43.2555 60.3446 42.8411 60.8943 42.5695C61.4439 42.2978 62.0701 42.162 62.7728 42.162C63.7189 42.162 64.4634 42.451 65.0061 43.0292C65.5487 43.6072 65.82 44.4221 65.82 45.4737V53.6226H62.5223V46.4245C62.5223 45.7419 62.4458 45.2683 62.2927 45.0036C62.1466 44.732 61.8683 44.5962 61.4577 44.5962C61.1099 44.5962 60.776 44.7076 60.4559 44.9306C60.1428 45.1534 59.8297 45.4633 59.5168 45.8603V53.6226H56.2189Z"
                  fill="#A7A7A7"/>
            <path d="M76.9314 42.162C77.7174 42.162 78.2985 42.4197 78.6742 42.9351C79.0568 43.4435 79.2481 44.2689 79.2481 45.411V53.6226H76.42V45.7872C76.42 45.3972 76.3817 45.1221 76.3052 44.9619C76.2356 44.8016 76.0894 44.7216 75.8668 44.7216C75.693 44.7216 75.512 44.7738 75.3241 44.8783C75.1433 44.9758 74.9415 45.1639 74.7189 45.4424V53.6226H72.4021V45.7872C72.4021 45.3972 72.3638 45.1221 72.2873 44.9619C72.2177 44.8016 72.0716 44.7216 71.8489 44.7216C71.6751 44.7216 71.4941 44.7738 71.3062 44.8783C71.1254 44.9758 70.9236 45.1639 70.701 45.4424V53.6226H67.8311V42.5277H70.2522L70.4714 43.6037C70.8193 43.1301 71.1707 42.7714 71.5254 42.5277C71.8803 42.2839 72.3012 42.162 72.7882 42.162C73.2056 42.162 73.5604 42.2699 73.8527 42.4859C74.1519 42.6948 74.3641 43.0256 74.4893 43.4783C74.8233 43.0883 75.192 42.7714 75.5955 42.5277C75.9991 42.2839 76.4443 42.162 76.9314 42.162Z"
                  fill="#A7A7A7"/>
            <path d="M91.1004 40.7516L91.8728 43.1753C91.4832 43.3286 91.0274 43.4401 90.5057 43.5097C89.9838 43.5793 89.3751 43.6141 88.6794 43.6141C89.3751 43.9137 89.9038 44.2862 90.2656 44.7321C90.6344 45.1707 90.8187 45.7488 90.8187 46.4663C90.8187 47.1836 90.6274 47.8244 90.2448 48.3886C89.862 48.9458 89.3195 49.3846 88.6168 49.7049C87.9141 50.0253 87.0826 50.1855 86.1225 50.1855C85.6633 50.1855 85.2354 50.1437 84.8389 50.0601C84.7205 50.1228 84.6302 50.2133 84.5676 50.3318C84.5049 50.4501 84.4736 50.5721 84.4736 50.6974C84.4736 50.8715 84.5431 51.0282 84.6824 51.1675C84.8285 51.3069 85.1659 51.3764 85.6946 51.3764H87.5105C88.3732 51.3764 89.1176 51.5157 89.7438 51.7944C90.3769 52.0729 90.8674 52.4526 91.2153 52.9331C91.5631 53.4137 91.7371 53.964 91.7371 54.5838C91.7371 55.7191 91.2397 56.614 90.2448 57.2687C89.2498 57.9234 87.7714 58.2508 85.8094 58.2508C84.3901 58.2508 83.2908 58.1045 82.5117 57.812C81.7393 57.5265 81.2002 57.1155 80.8941 56.5791C80.5949 56.0499 80.4453 55.4195 80.4453 54.6882H83.3673C83.3673 55.0086 83.43 55.2698 83.5552 55.4718C83.6874 55.6807 83.9344 55.834 84.2962 55.9315C84.6649 56.029 85.1972 56.0778 85.8929 56.0778C86.5956 56.0778 87.1313 56.022 87.5 55.9106C87.8688 55.7991 88.1192 55.6459 88.2515 55.4509C88.3906 55.2628 88.4602 55.0504 88.4602 54.8136C88.4602 54.4862 88.3314 54.2216 88.0741 54.0196C87.8166 53.8177 87.4097 53.7166 86.853 53.7166H85.0893C83.8926 53.7166 83.0229 53.4972 82.4803 53.0584C81.9376 52.6127 81.6663 52.0938 81.6663 51.5018C81.6663 51.0909 81.7741 50.7009 81.9898 50.3318C82.2124 49.9627 82.5221 49.6527 82.9187 49.4019C82.209 49.0258 81.701 48.5835 81.3949 48.0751C81.0888 47.5598 80.9358 46.9433 80.9358 46.226C80.9358 45.3902 81.148 44.6728 81.5724 44.0738C81.9968 43.4679 82.5811 43.0013 83.3256 42.6739C84.077 42.3466 84.9329 42.1829 85.8929 42.1829C86.7208 42.1968 87.441 42.1411 88.0532 42.0157C88.6654 41.8833 89.2151 41.7058 89.7021 41.4829C90.189 41.253 90.6552 41.0093 91.1004 40.7516ZM85.9764 44.3246C85.4546 44.3246 85.0406 44.4918 84.7345 44.8261C84.4283 45.1534 84.2753 45.6061 84.2753 46.1842C84.2753 46.7971 84.4319 47.2672 84.745 47.5945C85.058 47.9219 85.4686 48.0856 85.9764 48.0856C87.1034 48.0856 87.667 47.4378 87.667 46.1424C87.667 44.9306 87.1034 44.3246 85.9764 44.3246Z"
                  fill="#A7A7A7"/>
        </g>
        <defs>
            <clipPath id="clip0_2_5989">
                <rect width="97" height="59" fill="white"/>
            </clipPath>
        </defs>
    </g>
    <g id="github">
        <path fill-rule="evenodd" clip-rule="evenodd"
              d="M15 0C6.7125 0 0 6.7125 0 15C0 21.6375 4.29375 27.2437 10.2563 29.2313C11.0063 29.3625 11.2875 28.9125 11.2875 28.5188C11.2875 28.1625 11.2688 26.9813 11.2688 25.725C7.5 26.4188 6.525 24.8062 6.225 23.9625C6.05625 23.5312 5.325 22.2 4.6875 21.8438C4.1625 21.5625 3.4125 20.8687 4.66875 20.85C5.85 20.8313 6.69375 21.9375 6.975 22.3875C8.325 24.6562 10.4812 24.0187 11.3438 23.625C11.475 22.65 11.8688 21.9937 12.3 21.6187C8.9625 21.2437 5.475 19.95 5.475 14.2125C5.475 12.5813 6.05625 11.2313 7.0125 10.1813C6.8625 9.80625 6.3375 8.26875 7.1625 6.20625C7.1625 6.20625 8.41875 5.8125 11.2875 7.74375C12.4875 7.40625 13.7625 7.2375 15.0375 7.2375C16.3125 7.2375 17.5875 7.40625 18.7875 7.74375C21.6562 5.79375 22.9125 6.20625 22.9125 6.20625C23.7375 8.26875 23.2125 9.80625 23.0625 10.1813C24.0188 11.2313 24.6 12.5625 24.6 14.2125C24.6 19.9688 21.0938 21.2437 17.7563 21.6187C18.3 22.0875 18.7688 22.9875 18.7688 24.3937C18.7688 26.4 18.75 28.0125 18.75 28.5188C18.75 28.9125 19.0312 29.3813 19.7812 29.2313C22.759 28.2259 25.3465 26.3121 27.1796 23.7592C29.0127 21.2063 29.9991 18.1429 30 15C30 6.7125 23.2875 0 15 0Z"
              fill="currentColor"/>
    </g>
    <g id="twitter">
        <path d="M15 0C6.71652 0 0 6.71652 0 15C0 23.2835 6.71652 30 15 30C23.2835 30 30 23.2835 30 15C30 6.71652 23.2835 0 15 0ZM22.2087 11.3069C22.2187 11.4643 22.2187 11.6283 22.2187 11.7891C22.2187 16.7042 18.4754 22.3661 11.635 22.3661C9.52567 22.3661 7.57031 21.7533 5.92299 20.6987C6.22433 20.7321 6.51228 20.7455 6.82031 20.7455C8.56138 20.7455 10.1618 20.1562 11.4375 19.1585C9.80357 19.125 8.4308 18.0536 7.96205 16.5804C8.5346 16.6641 9.05022 16.6641 9.63951 16.5134C8.79819 16.3425 8.04199 15.8855 7.49938 15.2203C6.95678 14.555 6.66123 13.7223 6.66295 12.8638V12.817C7.15513 13.0949 7.73438 13.2656 8.3404 13.2891C7.83095 12.9495 7.41314 12.4895 7.12403 11.9499C6.83493 11.4102 6.68345 10.8075 6.68304 10.1953C6.68304 9.50223 6.86384 8.86942 7.18862 8.32031C8.12244 9.46988 9.28771 10.4101 10.6087 11.0798C11.9297 11.7495 13.3768 12.1338 14.856 12.2076C14.3304 9.67969 16.2188 7.63393 18.4888 7.63393C19.5603 7.63393 20.5246 8.08259 21.2042 8.8058C22.0446 8.64844 22.8482 8.3337 23.5647 7.91183C23.2868 8.77232 22.7042 9.49888 21.9308 9.95759C22.6808 9.87723 23.404 9.66964 24.0737 9.37835C23.5681 10.1217 22.9353 10.7812 22.2087 11.3069Z"
              fill="currentColor"/>
    </g>
    <g id="linkedin">
        <path d="M14.4 0C6.447 0 0 6.447 0 14.4C0 22.353 6.447 28.8 14.4 28.8C22.353 28.8 28.8 22.353 28.8 14.4C28.8 6.447 22.353 0 14.4 0ZM10.875 20.3685H7.959V10.9845H10.875V20.3685ZM9.399 9.8325C8.478 9.8325 7.8825 9.18 7.8825 8.373C7.8825 7.5495 8.496 6.9165 9.4365 6.9165C10.377 6.9165 10.953 7.5495 10.971 8.373C10.971 9.18 10.377 9.8325 9.399 9.8325ZM21.525 20.3685H18.609V15.168C18.609 13.9575 18.186 13.1355 17.1315 13.1355C16.326 13.1355 15.8475 13.692 15.636 14.2275C15.558 14.418 15.5385 14.688 15.5385 14.9565V20.367H12.621V13.977C12.621 12.8055 12.5835 11.826 12.5445 10.983H15.078L15.2115 12.2865H15.27C15.654 11.6745 16.5945 10.7715 18.168 10.7715C20.0865 10.7715 21.525 12.057 21.525 14.82V20.3685Z"
              fill="currentColor"/>
    </g>
    <!--    tech stack-->
    <g id="html">
        <path d="M22.1325 102.004L13.7063 7.5H106.294L97.8563 101.989L59.9438 112.5L22.1325 102.004Z" fill="#E44F26"/>
        <path d="M60 104.468L90.6375 95.9738L97.845 15.2288H60V104.468Z" fill="#F1662A"/>
        <path d="M60 50.2762H44.6625L43.605 38.4074H60V26.8162H30.9375L31.215 29.9287L34.0613 61.8674H60V50.2762ZM60 80.3774L59.9475 80.3924L47.04 76.9087L46.215 67.6649H34.5787L36.2025 85.8599L59.9475 92.4524L60 92.4374V80.3774Z" fill="#EBEBEB"/>
        <path d="M59.9587 50.2762V61.8674H74.2312L72.8887 76.9012L59.9587 80.3887V92.4487L83.7225 85.8599L83.895 83.9024L86.6175 53.3887L86.9025 50.2762H59.9587ZM59.9587 26.8162V38.4074H87.9562L88.1887 35.8049L88.7175 29.9287L88.995 26.8162H59.9587Z" fill="white"/>
    </g>
    <g id="css">
        <path d="M22.1325 101.154L13.71 7.4375H106.29L97.8562 101.139L59.9437 111.562L22.1325 101.154Z" fill="#1572B6"/>
        <path d="M60 103.597L90.6375 95.1739L97.845 15.1018H60V103.597Z" fill="#33A9DC"/>
        <path d="M60 49.054H75.3375L76.395 37.2842H60V25.7896H89.0625L88.785 28.8724L85.9387 60.5487H60V49.054Z" fill="white"/>
        <path d="M60.0711 78.9045L60.0186 78.9193L47.1112 75.4609L46.2862 66.2942H34.6499L36.2737 84.3413L60.0149 90.8788L60.0711 90.864V78.9045Z" fill="#EBEBEB"/>
        <path d="M74.3513 60.0615L72.9563 75.4534L60.03 78.9119V90.8714L83.79 84.3412L83.9663 82.4001L85.98 60.0615H74.3513Z" fill="white"/>
        <path d="M60.0411 25.7896V37.2842H32.0436L31.8111 34.6997L31.2824 28.8724L31.0049 25.7896H60.0411ZM59.9999 49.054V60.5487H47.2536L47.0211 57.9642L46.4961 52.1369L46.2186 49.054H59.9999Z" fill="#EBEBEB"/>
    </g>
    <g id="js">
        <path d="M7.5 7.5H112.5V112.5H7.5V7.5Z" fill="#F5DE19"/>
        <path d="M78.0338 89.5312C78.9284 91.3485 80.3183 92.8759 82.0434 93.9375C83.7684 94.9991 85.7584 95.5515 87.7838 95.5313C91.8713 95.5313 94.485 93.4875 94.485 90.6562C94.485 87.2812 91.8 86.0738 87.3 84.105L84.8325 83.0475C77.7075 80.0138 72.9825 76.215 72.9825 68.1825C72.9825 60.7838 78.6075 55.1475 87.4313 55.1475C90.2877 54.9412 93.1416 55.5805 95.637 56.9856C98.1324 58.3907 100.159 60.4994 101.464 63.0488L93.75 67.98C93.2476 66.716 92.3728 65.6345 91.2416 64.879C90.1105 64.1236 88.7764 63.7298 87.4163 63.75C86.8229 63.6906 86.2236 63.7555 85.6567 63.9404C85.0897 64.1254 84.5675 64.4265 84.1234 64.8244C83.6792 65.2224 83.3228 65.7085 83.0769 66.2518C82.831 66.7951 82.7009 67.3837 82.695 67.98C82.695 70.9388 84.5288 72.1388 88.7625 73.98L91.23 75.0375C99.615 78.6338 104.355 82.2975 104.355 90.5363C104.355 99.42 97.3763 104.287 88.005 104.287C84.3537 104.52 80.713 103.691 77.5223 101.901C74.3317 100.11 71.7274 97.4342 70.0238 94.1963L78.0338 89.5312ZM43.1775 90.3863C44.7263 93.135 46.1363 95.46 49.5263 95.46C52.7663 95.46 54.8138 94.1925 54.8138 89.2612V55.71H64.68V89.3925C64.68 99.6075 58.68 104.257 49.9463 104.257C46.8591 104.426 43.7931 103.657 41.1513 102.051C38.5096 100.444 36.4157 98.0761 35.145 95.2575L43.1775 90.3863Z" fill="black"/>
    </g>
    <g id="react">
        <g clip-path="url(#clip0_2_5687)">
            <path d="M92.9055 32.7027C91.703 32.2887 90.4903 31.9051 89.2686 31.5523C89.4738 30.7106 89.6627 29.8792 89.8304 29.0623C92.5837 15.6483 90.7838 4.84178 84.6359 1.28375C78.7415 -2.12722 69.1015 1.42949 59.3658 9.93342C58.4063 10.773 57.4681 11.6368 56.552 12.524C55.9388 11.934 55.3148 11.3556 54.6802 10.7888C44.4766 1.69616 34.2492 -2.13608 28.108 1.43215C22.2188 4.85374 20.4749 15.0127 22.9537 27.7254C23.2003 28.9844 23.4787 30.237 23.7887 31.4819C22.341 31.8947 20.9441 32.3342 19.6072 32.8019C7.64431 36.9881 0.00463867 43.5483 0.00463867 50.3529C0.00463867 57.3808 8.20617 64.43 20.666 68.7043C21.6762 69.0495 22.6947 69.3692 23.7208 69.6634C23.3875 71.0042 23.0917 72.354 22.8336 73.7114C20.4705 86.2035 22.3159 96.1223 28.1892 99.5222C34.2554 103.033 44.4369 99.4247 54.3505 90.7268C55.1544 90.0196 55.9406 89.2925 56.7083 88.546C57.7003 89.5066 58.7188 90.4393 59.7626 91.343C69.3659 99.6365 78.85 102.985 84.7176 99.5762C90.7781 96.055 92.7479 85.3995 90.1906 72.4356C89.9891 71.42 89.7632 70.4094 89.5131 69.4047C90.2281 69.1921 90.9299 68.9732 91.614 68.7455C104.567 64.4384 112.995 57.4747 112.995 50.3529C112.995 43.5234 105.109 36.919 92.9055 32.7027ZM90.0961 64.1474C89.4782 64.3525 88.8444 64.5505 88.1982 64.7432C86.7682 60.1995 84.8385 55.3684 82.4768 50.3764C84.7304 45.5036 86.5859 40.734 87.9758 36.22C89.1317 36.5558 90.2533 36.9097 91.3346 37.2832C101.791 40.8961 108.168 46.2372 108.168 50.3529C108.168 54.7367 101.28 60.4277 90.0961 64.1474ZM85.4556 73.3765C86.5864 79.1087 86.7475 84.2916 85.9985 88.3435C85.3258 91.9844 83.9726 94.4115 82.2989 95.3839C78.7384 97.4526 71.1234 94.7637 62.9109 87.6706C61.94 86.8305 60.9926 85.9634 60.0698 85.0703C63.2538 81.5756 66.4356 77.5131 69.5411 73.0008C75.0035 72.5144 80.164 71.7188 84.8438 70.6331C85.0693 71.5426 85.2732 72.4573 85.4556 73.3765ZM38.5256 95.0264C35.0467 96.2592 32.2758 96.2946 30.6008 95.3254C27.0368 93.2624 25.5551 85.298 27.5761 74.6151C27.8164 73.3527 28.0914 72.0972 28.401 70.8502C33.0292 71.8779 38.1522 72.6168 43.6274 73.0624C46.7541 77.4776 50.0277 81.5358 53.327 85.0894C52.6258 85.7703 51.9081 86.4338 51.1744 87.0793C46.7903 90.9252 42.3973 93.654 38.5256 95.0264ZM22.2276 64.1204C16.718 62.2302 12.1679 59.7738 9.04919 57.0933C6.24649 54.6848 4.8319 52.2932 4.8319 50.3529C4.8319 46.2234 10.9656 40.9564 21.1961 37.3766C22.4377 36.9425 23.7371 36.5327 25.0855 36.1482C26.4996 40.7641 28.3543 45.5904 30.5924 50.4707C28.3251 55.4233 26.444 60.3267 25.0162 64.997C24.0796 64.7278 23.1498 64.4355 22.2276 64.1204ZM27.6909 26.7947C25.5674 15.9031 26.9776 7.68706 30.5267 5.62497C34.3066 3.42867 42.6652 6.56011 51.4754 14.4115C52.0499 14.9247 52.6151 15.4482 53.1707 15.9819C49.8878 19.52 46.6442 23.548 43.5453 27.9371C38.2312 28.4315 33.1444 29.2253 28.4677 30.2889C28.1795 29.131 27.9205 27.9661 27.6909 26.7951V26.7947ZM76.43 38.8739C75.3254 36.9589 74.1797 35.0679 72.9939 33.2024C76.599 33.66 80.0532 34.2673 83.2968 35.0098C82.3232 38.1425 81.1094 41.4175 79.6807 44.7753C78.6364 42.7867 77.5526 40.8191 76.43 38.8739ZM56.5542 19.4443C58.7805 21.8652 61.0103 24.5678 63.2035 27.5003C58.7545 27.2894 54.298 27.2886 49.849 27.4977C52.0443 24.5922 54.2931 21.8931 56.5542 19.4443ZM36.5509 38.9071C35.4424 40.8367 34.3788 42.792 33.3612 44.7713C31.9558 41.4255 30.7531 38.1355 29.7711 34.9584C32.9948 34.2346 36.4326 33.6427 40.0148 33.1935C38.8158 35.0704 37.6608 36.9754 36.5509 38.9067V38.9071ZM40.1176 67.8569C36.4168 67.4423 32.9273 66.881 29.7044 66.1767C30.7019 62.9429 31.9311 59.5829 33.3669 56.1653C34.3886 58.1461 35.4566 60.1026 36.5699 62.033C37.7148 64.0176 38.9003 65.9614 40.1176 67.8569ZM56.6875 81.6027C54.3995 79.1255 52.1176 76.3848 49.8891 73.4372C52.0527 73.5222 54.2582 73.5656 56.5 73.5656C58.803 73.5656 61.0796 73.5138 63.3204 73.4137C61.1202 76.4145 58.8988 79.1592 56.6875 81.6027ZM79.7262 55.9907C81.2365 59.446 82.5094 62.7883 83.5202 65.9667C80.2443 66.7171 76.7072 67.3214 72.9803 67.7701C74.1745 65.8699 75.331 63.9461 76.449 61.9998C77.5857 60.0214 78.6783 58.0179 79.7262 55.9907ZM72.2679 59.5794C70.5563 62.5634 68.7486 65.4909 66.8474 68.357C63.4037 68.6018 59.9523 68.7234 56.5 68.7216C52.9836 68.7216 49.5634 68.6118 46.2699 68.3974C44.3191 65.5378 42.4769 62.6053 40.747 59.6059H40.7475C39.0258 56.6225 37.4176 53.5745 35.9264 50.4685C37.4138 47.3618 39.0171 44.3124 40.7329 41.3267L40.7325 41.3271C42.4476 38.3407 44.2752 35.4206 46.2112 32.5734C49.5713 32.3182 53.0171 32.1853 56.4995 32.1853H56.5C59.9983 32.1853 63.4484 32.3195 66.8077 32.5765C68.7242 35.4195 70.5401 38.3295 72.252 41.301C73.9735 44.2801 75.598 47.3147 77.123 50.3999C75.6137 53.5166 73.9943 56.5783 72.2679 59.5794ZM82.2252 5.48056C86.0086 7.67067 87.4801 16.5024 85.1029 28.0842C84.9511 28.8231 84.7807 29.5757 84.5953 30.339C79.9071 29.2528 74.8168 28.4452 69.4873 27.9433C66.3827 23.506 63.1655 19.4717 59.936 15.9792C60.7824 15.1604 61.6489 14.3628 62.5348 13.5871C70.8767 6.30141 78.673 3.42468 82.2252 5.48056ZM56.5 40.2263C62.0723 40.2263 66.5897 44.7603 66.5897 50.3529C66.5897 55.9456 62.0723 60.4795 56.5 60.4795C50.9277 60.4795 46.4102 55.9456 46.4102 50.3529C46.4102 44.7603 50.9277 40.2263 56.5 40.2263Z" fill="#00D8FF"/>
        </g>
        <defs>
            <clipPath id="clip0_2_5687">
                <rect width="113" height="101" fill="white"/>
            </clipPath>
        </defs>
    </g>
    <g id="redux">
        <path d="M72.6971 69.5627C76.5688 69.1619 79.5061 65.8242 79.3725 61.8184C79.2393 57.8131 75.9012 54.6086 71.8959 54.6086H71.6291C67.4897 54.7422 64.2856 58.2135 64.4193 62.3525C64.5529 64.3553 65.3537 66.091 66.5553 67.2926C62.016 76.2385 55.0734 82.7807 44.6594 88.2549C37.5832 91.9934 30.2402 93.3287 22.8971 92.3943C16.8889 91.593 12.216 88.923 9.27827 84.5164C5.00614 77.9742 4.60573 70.8975 8.21065 63.8213C10.7475 58.7475 14.7525 55.009 17.2893 53.1398C16.7553 51.4041 15.9541 48.4668 15.5537 46.3307C-3.80574 60.35 -1.80287 79.3094 4.07172 88.2549C8.47745 94.9311 17.4229 99.0701 27.3029 99.0701C29.9729 99.0701 32.643 98.8029 35.3135 98.1357C52.4033 94.7975 65.3541 84.65 72.6971 69.5627ZM96.1955 53.0066C86.0483 41.1234 71.0951 34.5811 54.0053 34.5811H51.8693C50.6676 32.1779 48.1307 30.5754 45.327 30.5754H45.0598C40.9213 30.709 37.7172 34.1803 37.8504 38.3197C37.984 42.325 41.3217 45.5295 45.327 45.5295H45.5938C48.5311 45.3959 51.068 43.5266 52.1361 40.9898H54.5393C64.6865 40.9898 74.2992 43.927 82.9779 49.6684C89.6533 54.0746 94.4598 59.816 97.1299 66.7586C99.3996 72.3664 99.266 77.8406 96.8627 82.5139C93.1246 89.5902 86.8496 93.4623 78.5717 93.4623C73.2311 93.4623 68.1578 91.8598 65.4873 90.6582C64.0188 91.9934 61.3484 94.1295 59.4791 95.4652C65.2205 98.1352 71.0951 99.6041 76.7025 99.6041C89.5197 99.6041 98.9992 92.5275 102.604 85.4512C106.476 77.707 106.209 64.3553 96.1955 53.0066ZM28.3709 71.832C28.5045 75.8377 31.8422 79.0418 35.8475 79.0418H36.1147C40.2537 78.9086 43.4578 75.4369 43.3242 71.2979C43.191 67.2922 39.8529 64.0881 35.8475 64.0881H35.5807C35.3135 64.0881 34.9127 64.0881 34.6463 64.2213C29.1721 55.1422 26.9025 45.2623 27.7037 34.5807C28.2373 26.5697 30.9078 19.6266 35.5807 13.8852C39.4525 8.94508 46.9291 6.5418 52.0029 6.40861C66.1549 6.14139 72.1627 23.7656 72.5635 30.8422C74.2992 31.2426 77.2365 32.1775 79.2393 32.8451C77.6369 11.2156 64.2856 0 51.4688 0C39.4524 0 28.3709 8.67869 23.9647 21.4963C17.8234 38.5865 21.8287 55.009 29.3053 67.9602C28.6381 68.8947 28.2373 70.3635 28.3709 71.8324V71.832Z" fill="#764ABC"/>
    </g>
    <g id="bootstrap">
        <g clip-path="url(#clip0_15_2274)">
            <path d="M0 75.7821C0 81.9781 5.08028 87 11.3468 87H76.6528C82.9204 87 88 81.9774 88 75.7821V11.2182C88 5.02187 82.9197 0 76.6532 0H11.3472C5.07959 0 0 5.02255 0 11.2179V75.7818V75.7821Z" fill="#563D7C"/>
            <path d="M36.4919 38.4832V26.1629H47.4613C48.5063 26.1629 49.5135 26.2489 50.4836 26.4212C51.4536 26.5931 52.312 26.9003 53.0583 27.3431C53.8042 27.786 54.4013 28.4007 54.8492 29.1875C55.2968 29.9746 55.5209 30.9829 55.5209 32.2121C55.5209 34.4255 54.8492 36.0241 53.5058 37.0076C52.1628 37.9915 50.4464 38.4832 48.3568 38.4832H36.4919ZM24.7759 17.1621V69.8379H50.5956C52.9837 69.8379 55.3095 69.5429 57.5731 68.9526C59.8367 68.3623 61.8514 67.4525 63.6176 66.223C65.3834 64.9934 66.789 63.407 67.8337 61.4645C68.8787 59.5216 69.4008 57.2222 69.4008 54.5663C69.4008 51.2709 68.5923 48.4553 66.9757 46.1192C65.3587 43.7828 62.9084 42.1474 59.6249 41.2129C62.0129 40.0819 63.8166 38.6307 65.0355 36.8601C66.2541 35.0895 66.8636 32.8765 66.8636 30.2203C66.8636 27.7612 66.4532 25.6956 65.6323 24.0232C64.8114 22.3512 63.6547 21.0108 62.1621 20.0025C60.6699 18.9942 58.879 18.2686 56.7893 17.8262C54.7 17.3833 52.3866 17.1621 49.8493 17.1621H24.7759ZM36.4919 60.8371V46.3771H49.2523C51.7895 46.3771 53.8293 46.9548 55.3717 48.111C56.9138 49.2668 57.6851 51.1971 57.6851 53.9023C57.6851 55.2797 57.4486 56.4107 56.976 57.296C56.5033 58.1813 55.8691 58.8823 55.073 59.3986C54.2772 59.9151 53.3566 60.2839 52.312 60.5054C51.267 60.7263 50.1728 60.8371 49.0285 60.8371H36.4919Z" fill="white"/>
        </g>
        <defs>
            <clipPath id="clip0_15_2274">
                <rect width="88" height="87" fill="white"/>
            </clipPath>
        </defs>
    </g>
    <g id="tailwind">
        <path d="M36.8438 56.0844C40.6646 40.8011 50.2167 33.1594 65.5 33.1594C88.425 33.1594 91.2906 50.3532 102.753 53.2188C110.395 55.1292 117.081 52.2636 122.812 44.6219C118.992 59.9053 109.44 67.5469 94.1562 67.5469C71.2313 67.5469 68.3656 50.3532 56.9031 47.4875C49.2615 45.5771 42.575 48.4428 36.8438 56.0844ZM8.1875 90.4719C12.0083 75.1886 21.5604 67.5469 36.8438 67.5469C59.7687 67.5469 62.6344 84.7407 74.0969 87.6063C81.7385 89.5167 88.425 86.6511 94.1562 79.0094C90.3354 94.2928 80.7833 101.934 65.5 101.934C42.575 101.934 39.7094 84.7407 28.2469 81.875C20.6052 79.9646 13.9187 82.8303 8.1875 90.4719Z" fill="#44A8B3"/>
    </g>
    <g id="sass">
        <g clip-path="url(#clip0_15_2272)">
        <path d="M100.673 50.0767C96.6031 50.0975 93.0654 51.0695 90.1035 52.5064C89.0163 50.3721 87.9295 48.4708 87.738 47.0761C87.5246 45.4494 87.2691 44.4561 87.5246 42.5122C87.7805 40.5683 88.9313 37.8002 88.9098 37.589C88.8888 37.3779 88.6539 36.3846 86.3099 36.3638C83.9659 36.3425 81.9413 36.8074 81.7069 37.42C81.4724 38.0326 81.025 39.4274 80.7266 40.8638C80.3217 42.9771 76.0386 50.5199 73.5881 54.4711C72.7993 52.9291 72.1175 51.5765 71.968 50.499C71.7551 48.8723 71.4991 47.879 71.7551 45.9351C72.011 43.9912 73.1617 41.2235 73.1403 41.0119C73.1188 40.8008 72.8843 39.8075 70.5403 39.7867C68.1959 39.7654 66.1713 40.2303 65.9373 40.8429C65.7029 41.456 65.447 42.8924 64.9571 44.2871C64.4667 45.6818 58.7769 58.2751 57.2853 61.5285C56.6824 62.8454 56.0501 64.1487 55.3887 65.4376C55.3887 65.4376 55.3672 65.5011 55.3032 65.6067C55.0954 66.0108 54.8824 66.4123 54.6643 66.8111V66.8319C54.3444 67.4028 54.0035 67.9307 53.833 67.9307C53.7051 67.9307 53.4706 66.4096 53.8755 64.3388C54.7278 59.9652 56.7524 53.1616 56.7314 52.9291C56.7314 52.8022 57.1148 51.6191 55.4102 51.0061C53.7476 50.3934 53.1512 51.4075 53.0017 51.4075C52.8527 51.4075 52.7458 51.7669 52.7458 51.7669C52.7458 51.7669 54.6003 44.1181 49.2085 44.1181C45.8418 44.1181 41.1958 47.7735 38.8943 51.0695C36.278 52.4812 33.6639 53.8969 31.0521 55.3166C29.7953 56.014 28.4951 56.7114 27.2804 57.3661C27.1949 57.2818 27.1099 57.1758 27.0245 57.0915C20.5034 50.1823 8.44203 45.3012 8.95342 36.0257C9.14537 32.645 10.3171 23.7705 32.1178 12.9948C50.0609 4.22589 64.3392 6.65555 66.8111 12.0437C70.3484 19.735 59.1608 34.0184 40.6204 36.0887C33.5455 36.8708 29.8373 34.1661 28.9 33.152C27.9197 32.0953 27.7703 32.0319 27.4079 32.2435C26.8115 32.5607 27.1949 33.5114 27.4079 34.0605C27.9622 35.497 30.2422 38.0326 34.0994 39.2796C37.5091 40.378 45.7988 40.9911 55.8361 37.1454C67.0666 32.8348 75.8467 20.8547 73.2682 10.8184C70.6893 0.633969 53.6411 -2.7255 37.5091 2.95805C27.9197 6.33927 17.52 11.6635 10.0402 18.594C1.15366 26.8341 -0.253009 33.9971 0.322365 36.9977C2.38987 47.6466 17.2006 54.5771 23.1248 59.7115C22.8264 59.8805 22.549 60.0287 22.315 60.1556C19.3526 61.6133 8.05815 67.4658 5.24526 73.6569C2.04894 80.6717 5.75711 85.7009 8.20759 86.3765C15.8154 88.4686 23.6362 84.7077 27.8343 78.4953C32.0323 72.2834 31.521 64.2119 29.5819 60.5144C29.5604 60.4723 29.5394 60.4297 29.4964 60.3876C30.2637 59.9439 31.0521 59.479 31.8194 59.0354C33.2297 58.2088 34.6578 57.4127 36.1029 56.6475C35.3781 58.6127 34.8452 60.958 34.5898 64.3388C34.2699 68.3114 35.9105 73.4666 38.063 75.4947C39.0223 76.3829 40.1516 76.4037 40.8764 76.4037C43.3908 76.4037 44.5206 74.3329 45.7778 71.882C47.312 68.8818 48.6972 65.3955 48.6972 65.3955C48.6972 65.3955 46.971 74.8191 51.6595 74.8191C53.3641 74.8191 55.0902 72.6215 55.8576 71.5018V71.5227C55.8576 71.5227 55.9001 71.4592 55.9855 71.3115C56.156 71.0369 56.2625 70.8674 56.2625 70.8674V70.8257C56.9443 69.6422 58.479 66.9588 60.759 62.5005C63.6998 56.7535 66.5342 49.5697 66.5342 49.5697C66.5342 49.5697 66.7901 51.3232 67.6635 54.2391C68.1753 55.9506 69.2401 57.831 70.0929 59.6481C69.4111 60.5992 68.9847 61.1271 68.9847 61.1271L69.0061 61.1484C68.4518 61.8666 67.8554 62.6482 67.1946 63.4095C64.8716 66.1558 62.1017 69.3046 61.7178 70.2127C61.2699 71.2902 61.3769 72.0723 62.2296 72.7062C62.8475 73.1711 63.9553 73.2341 65.085 73.1711C67.1735 73.0229 68.6437 72.5159 69.3681 72.1992C70.4978 71.7977 71.819 71.1846 73.0548 70.2761C75.3353 68.6068 76.72 66.2193 76.5925 63.0714C76.5285 61.3387 75.9531 59.6059 75.2498 57.9787C75.4632 57.6833 75.6547 57.3874 75.8681 57.0915C79.4694 51.8724 82.2612 46.1463 82.2612 46.1463C82.2612 46.1463 82.5172 47.8999 83.3905 50.8162C83.8169 52.2952 84.6907 53.9011 85.4575 55.4644C82.0693 58.1904 79.9808 61.3595 79.2349 63.4303C77.8927 67.276 78.9365 69.0083 80.9185 69.4097C81.8134 69.6 83.0921 69.1773 84.0298 68.7758C85.2231 68.3956 86.6298 67.7409 87.9725 66.7685C90.2529 65.0996 92.4475 62.7751 92.3195 59.6272C92.2555 58.1904 91.8721 56.7743 91.3392 55.4009C94.2161 54.2183 97.9243 53.563 102.655 54.1122C112.799 55.2953 114.802 61.5707 114.418 64.2124C114.035 66.8532 111.904 68.2901 111.201 68.7337C110.497 69.1777 110.263 69.3254 110.327 69.6422C110.412 70.1071 110.753 70.0862 111.35 70.0015C112.181 69.8538 116.678 67.8673 116.869 63.0075C117.189 56.7956 111.222 50.0133 100.673 50.0767ZM22.4215 76.2347C19.0542 79.8688 14.3662 81.2422 12.3417 80.0804C10.1682 78.8334 11.0205 73.4666 15.1546 69.6213C17.669 67.276 20.9083 65.0992 23.0608 63.7683C23.5507 63.4724 24.2755 63.0501 25.1493 62.5218C25.2983 62.437 25.3838 62.3949 25.3838 62.3949L25.8952 62.0777C27.4079 67.5714 25.9592 72.4103 22.4215 76.2347ZM46.9285 59.7115C45.7563 62.5431 43.3058 69.7904 41.8142 69.3889C40.5354 69.0509 39.7467 63.5572 41.5582 58.1269C42.4745 55.4009 44.4136 52.147 45.5433 50.8796C47.3759 48.851 49.4005 48.1745 49.8904 48.9992C50.5087 50.0767 47.6529 57.9366 46.9285 59.7115ZM67.1521 69.3042C66.6617 69.5579 66.1933 69.7269 65.9798 69.6C65.8309 69.5153 66.1933 69.1773 66.1933 69.1773C66.1933 69.1773 68.7292 66.473 69.7305 65.2473C70.3063 64.5291 70.9877 63.684 71.7126 62.7329V63.0075C71.7126 66.2406 68.5583 68.4169 67.1516 69.3042H67.1521ZM82.7511 65.7757C82.3887 65.5219 82.4527 64.6768 83.6674 62.0356C84.1363 61.0002 85.2441 59.2679 87.1412 57.5986C87.3541 58.2746 87.5036 58.9299 87.4821 59.5425C87.4606 63.6206 84.5202 65.1417 82.7511 65.7757Z" fill="#CD6799"/>
    </g>
        <defs>
            <clipPath id="clip0_15_2272">
                <rect width="117" height="87" fill="white"/>
            </clipPath>
        </defs>
    </g>
    <g id="git">
        <g clip-path="url(#clip0_2_5685)">
            <path d="M103.02 47.8219L57.1758 1.98038C54.5372 -0.6598 50.2552 -0.6598 47.6134 1.98038L38.0937 11.5001L50.1699 23.5763C52.9762 22.6281 56.1943 23.2642 58.4313 25.5012C60.6789 27.7525 61.3106 30.9981 60.3393 33.8134L71.9775 45.452C74.7932 44.482 78.0421 45.1095 80.291 47.3621C83.434 50.5039 83.434 55.596 80.291 58.7399C77.1471 61.8841 72.055 61.8841 68.9095 58.7399C66.5454 56.3733 65.9613 52.9013 67.1582 49.9888L56.3046 39.1352L56.3034 67.6973C57.0902 68.0863 57.8088 68.6002 58.4313 69.2189C61.5743 72.3607 61.5743 77.4532 58.4313 80.5995C55.2874 83.7422 50.1929 83.7422 47.0535 80.5995C43.9105 77.4532 43.9105 72.3611 47.0535 69.2193C47.8067 68.4658 48.7019 67.869 49.6871 67.4635V38.6352C48.7004 38.2324 47.8048 37.6353 47.0535 36.8793C44.6722 34.5013 44.0996 31.0071 45.3198 28.0831L33.4154 16.1775L1.98105 47.6099C-0.660352 50.2525 -0.660352 54.5349 1.98105 57.1755L47.8259 103.018C50.4652 105.658 54.7464 105.658 57.3891 103.018L103.019 57.3884C105.66 54.747 105.66 50.4621 103.019 47.8219" fill="#DE4C36"/>
        </g>
        <defs>
            <clipPath id="clip0_2_5685">
                <rect width="105" height="105" fill="white"/>
            </clipPath>
        </defs>
    </g>
    <g id="greensock">
        <path d="M67.365 119.745C65.8012 119.471 64.1812 118.729 63.2625 117.907C62.6388 117.253 62.2829 116.389 62.265 115.485C62.265 114.566 62.7337 113.276 63.4762 111.99C63.9262 111.266 64.2787 110.486 64.53 109.665C64.6875 109.099 65.0175 108.18 65.2725 107.595L65.7225 106.522L65.8387 99.3562C65.8987 95.3924 66.015 91.7212 66.1125 91.1512C66.3675 89.5087 66.795 87.9074 67.3612 86.3474L67.7925 85.3124L67.1662 84.9412C66.6 84.5887 66.1312 84.1012 64.275 81.8924C61.9912 79.1962 58.9837 77.7112 54.7237 77.2049C53.3362 77.0699 51.93 76.9687 50.5237 76.9124C44.2725 76.6199 40.6987 75.3112 37.4775 72.1462C35.0737 69.7837 33.825 67.0274 33.3187 62.9662C32.6362 57.4762 31.875 54.6637 30.4687 52.3799C30.1221 51.8159 29.7228 51.2861 29.2762 50.7974L28.71 50.2312L27.4612 51.0337C26.7787 51.4837 25.8187 52.0499 25.35 52.3049C23.7862 53.1637 22.3012 54.1199 20.8762 55.1549C17.3812 57.6937 13.5712 60.8774 11.4825 62.9662C10.545 63.9037 10.0575 64.3124 9.83998 64.2749C8.41498 64.0612 9.50623 57.8887 11.8312 53.2387C14.8012 47.2424 19.8 41.7149 25.5825 37.9837C30.33 34.9162 38.0062 30.6974 41.5575 29.2124C47.865 26.5762 56.0287 23.7224 61.6162 22.1999C62.79 21.8662 63.51 21.5737 63.9975 21.2437C65.0925 20.4824 66.165 20.1112 67.395 20.0924C68.43 20.0737 68.5275 20.0549 69.525 19.3874C70.6987 18.6262 71.0475 18.5849 72.2212 18.9974L72.9825 19.2712L73.92 18.6262L74.8575 17.9999L76.2037 18.0187C77.2387 18.0374 77.7075 17.9999 78.1575 17.8049C78.7237 17.5499 78.7425 17.5124 78.9 16.5749C79.2525 14.5424 79.29 13.5262 79.0762 12.2962C78.8025 10.6762 78.765 4.38744 79.0387 3.15369C79.3312 1.82619 79.5262 1.55244 80.5237 1.06494C82.0087 0.341191 83.1225 0.127441 85.68 0.127441C88.8037 0.127441 90.3862 0.558691 91.56 1.69119C92.6137 2.70744 92.79 5.08869 92.2425 10.6762C91.9087 13.8974 91.8712 14.7974 91.9687 16.9049C92.0062 18.2512 92.1037 19.5224 92.145 19.6987C92.2237 20.0324 92.3025 20.0512 93.435 20.0699C94.5487 20.0887 94.7437 20.1487 95.7975 20.6962C96.8137 21.2249 97.575 21.8699 97.7325 22.3387C97.7512 22.4362 97.9275 22.4362 98.2387 22.3387C98.8425 22.1624 99.3712 22.3574 99.8025 22.8862C100.057 23.2199 100.211 23.2762 100.8 23.2762C101.602 23.2762 101.895 23.4712 102.559 24.4499C102.869 24.8892 103.295 25.2344 103.789 25.4474C104.884 25.9949 106.369 27.5174 106.935 28.7287C107.812 30.5249 107.989 32.6137 107.441 34.4887C107.246 35.1937 107.246 35.2124 107.655 35.8949C108.514 37.3612 108.829 39.1574 108.476 40.6799L108.281 41.5799L108.866 42.1649C111.776 45.0749 111.345 49.8224 107.794 54.0599C107.397 54.544 107.062 55.0756 106.796 55.6424C106.114 57.4574 105.33 58.7287 104.317 59.7824L103.282 60.8362H102.229C101.175 60.8362 99.69 60.4837 98.79 60.0149C98.4187 59.8199 98.4 59.8199 98.4787 60.0524C98.715 60.9112 99.3 64.4062 99.495 66.3412C99.8062 69.3112 99.7087 73.6274 99.3 75.4837C99.0013 76.8585 98.5008 78.1816 97.815 79.41C97.425 80.0362 97.4062 80.1712 97.4812 80.9324C97.5975 82.005 97.3462 83.8049 96.915 84.9937C96.3862 86.3812 96.1912 87.0262 96.075 87.7274C95.9775 88.3312 95.9775 88.3312 96.4087 88.3312C96.975 88.3312 97.2862 88.6649 97.2862 89.3287C97.2862 89.6212 97.0312 91.2037 96.72 92.8237C95.8612 97.3762 95.8012 97.8824 95.8012 102.296C95.7825 106.849 95.7825 106.807 96.8175 107.49L99.1425 108.994C101.143 110.321 103.285 111.422 105.529 112.275C108.791 113.565 109.241 113.895 109.241 114.99C109.241 115.477 109.144 115.654 108.735 116.044C107.486 117.255 105.022 117.529 100.061 117C97.4832 116.758 94.8955 116.635 92.3062 116.629C85.47 116.531 84.4725 116.295 83.5762 114.596C83.07 113.621 83.1675 112.35 83.8687 110.261C84.18 109.342 84.4537 108.405 84.69 107.449C85.1587 105.184 84.8475 102.487 83.7525 99.4424L82.815 96.8437C81.8962 94.2075 81.39 89.3812 81.9375 88.2899C82.035 88.0762 82.2112 88.035 82.68 88.0537L83.265 88.1137L83.7525 87.0974C84.1237 86.2949 84.5325 85.77 85.6462 84.6562L87.0712 83.2312L86.9925 82.3124C86.9325 81.4349 85.7812 77.1749 85.6237 77.1937C85.5637 77.1937 85.2525 77.6249 84.9 78.1687C84.0412 79.4587 82.1475 81.4499 81.0712 82.1737C80.6025 82.4849 80.2125 82.8562 80.2125 82.9762C80.1937 83.505 79.7437 84.5399 79.1962 85.2599C78.6675 85.9649 78.63 86.0812 78.7087 86.7037C78.8437 87.6224 78.5512 90.5699 78.2025 92.1149C77.8864 93.2621 77.4541 94.3741 76.9125 95.4337C75.5662 98.2274 74.55 100.725 74.295 101.88C74.1108 102.992 73.9931 104.114 73.9425 105.24C73.8825 106.567 73.7475 107.857 73.65 108.131C73.515 108.502 73.515 108.795 73.6312 109.361C73.7287 109.77 73.7887 110.689 73.7662 111.412C73.7475 112.41 73.8262 113.055 74.1187 114.225C74.625 116.216 74.7225 117.469 74.49 118.211C74.3325 118.68 74.1787 118.856 73.65 119.111C72.4762 119.715 69.1575 120.049 67.3612 119.737L67.365 119.745ZM72.1087 118.144C72.7912 117.949 73.38 117.364 73.38 116.835C73.38 116.599 73.185 115.916 72.9487 115.312C72.48 114.161 71.6775 111.112 71.6775 110.606C71.6775 110.351 71.6962 110.332 72.0862 110.546L72.5175 110.782V110.235C72.4549 109.73 72.3431 109.233 72.1837 108.75C71.8125 107.636 71.775 107.617 69.4087 107.479L67.8075 107.4L67.2225 107.966C66.9008 108.297 66.6189 108.665 66.3825 109.061C66.1275 109.567 66.03 110.332 66.1875 110.505C66.225 110.565 66.6187 110.505 67.0462 110.407C67.3 110.332 67.5618 110.287 67.8262 110.272C67.8262 110.291 67.395 110.644 66.8512 111.015C64.5075 112.774 63.6862 113.846 63.6862 115.215C63.6862 116.64 65.0325 117.754 67.1437 118.087C68.5875 118.301 71.4 118.361 72.105 118.147L72.1087 118.144ZM103.886 115.819C104.471 115.114 104.392 114.394 103.65 113.572C103.219 113.141 102.731 112.77 102.184 112.477C101.636 112.185 101.089 111.851 100.541 111.502C99.551 110.861 98.5338 110.261 97.4925 109.706C96.5925 109.219 95.715 108.709 94.8562 108.165L94.5037 107.891V102.521C94.5037 97.2299 94.485 97.1512 94.2112 97.2299C92.8425 97.6012 90.5775 97.7775 87.7087 97.7174L84.6037 97.6799L85.0537 98.7749C85.8937 100.845 86.325 103.62 86.325 106.804C86.325 107.996 86.2462 108.424 85.9537 109.264C85.7962 109.672 85.6612 110.085 85.5225 110.494C85.4625 110.67 85.68 110.805 86.4787 111.041C87.0637 111.217 87.9225 111.394 88.4137 111.45L89.3137 111.547L89.2162 112.447C89.1187 113.464 89.235 114.536 89.49 114.87C89.6475 115.065 90.2325 115.144 92.9475 115.26C94.9987 115.357 97.2262 115.571 98.9812 115.826C100.504 116.062 102.146 116.257 102.634 116.257C103.455 116.276 103.534 116.239 103.882 115.826L103.886 115.819ZM72.6187 106.68C72.6975 106.62 72.8137 105.566 72.855 104.317C73.0125 100.822 73.1475 100.312 74.9062 96.3674C76.35 93.1462 77.115 90.1387 77.055 88.0087L77.0175 86.7374L76.47 87.2662C75.3375 88.3987 76.1175 86.6212 77.4675 85.0387C78.4837 83.8274 78.8362 83.1637 78.99 82.0912C79.0687 81.66 79.2262 81.4462 79.89 80.9399C82.3735 79.0639 84.2871 76.5349 85.4175 73.6349C85.6912 72.9299 86.3925 70.5299 86.9812 68.3024C88.0762 64.1812 88.6612 62.4037 89.19 61.6424C89.385 61.3499 89.4637 61.2899 89.4262 61.4849C89.143 62.5323 88.9214 63.5954 88.7625 64.6687C88.605 65.6249 88.3125 67.4999 88.1175 68.8087C87.7462 71.4862 87.3562 73.2037 86.8275 74.5312L86.475 75.4312L87.4125 77.8537C88.3875 80.3324 88.8375 82.1324 88.9162 83.8687L88.9762 84.8437L88.215 85.0012C87.2102 85.179 86.3136 85.7396 85.7137 86.5649C85.05 87.5212 84.6787 88.3049 84.855 88.4774C84.9337 88.5562 85.89 88.7324 86.985 88.8674C88.6837 89.0624 89.3287 89.0624 91.575 88.9274C92.55 88.8899 93.51 88.7924 94.4662 88.6537C94.68 88.575 94.8975 88.1474 95.2462 87.0337C96.0487 84.4762 96.2025 83.5762 96.105 81.7799L96.0262 80.1974L96.435 79.6687C97.3912 78.4575 98.1337 76.2712 98.445 73.7099C98.8162 70.5862 98.1337 64.0424 96.8625 58.4174C96.2587 55.7399 96.0037 54.1387 96.0037 52.9687V51.9337L95.0475 52.0312C91.6087 52.4024 87.45 52.3049 84.9112 51.7762C83.5237 51.5024 80.0287 50.4674 79.2675 50.1337L78.6637 49.8599L78.585 50.5424C78.525 50.9137 78.4687 51.2849 78.39 51.6749C78.2737 52.0837 78.3112 52.1812 79.035 52.8862C79.935 53.8049 80.2087 54.2737 80.2087 54.8962C80.2087 55.2862 79.995 55.6012 78.9 56.7337C78.1149 57.5715 77.2438 58.3244 76.3012 58.9799L75.03 59.8387L74.4825 61.7324C72.5287 68.6662 72.1575 74.9737 73.4475 79.4849L73.7587 80.6174L73.1325 81.3974C70.7887 84.3449 69.4012 86.5912 69.1875 87.8437C69.0625 88.4604 68.9187 89.0732 68.7562 89.6812C68.25 91.6162 67.8562 94.4474 67.6837 97.5149C67.5635 100.083 67.3948 102.648 67.1775 105.21L67.08 105.971L68.055 106.264C68.6025 106.44 69.4237 106.635 69.8925 106.714C70.77 106.849 72.3937 106.811 72.645 106.676L72.6187 106.68ZM91.5825 95.9362C93.105 95.8387 94.4925 95.6024 94.7662 95.3699C94.8825 95.2912 95.0212 94.8824 95.0587 94.4699L95.1562 93.7274L93.945 94.0012C92.9887 94.1962 92.0325 94.3124 91.0725 94.3912C88.7662 94.4887 86.445 94.4287 84.1575 94.1962C83.3962 94.0799 83.3962 94.0799 83.6287 95.0737C83.8237 95.8162 83.865 95.8537 85.8562 95.9924C87.1837 96.1087 89.04 96.09 91.5787 95.9324L91.5825 95.9362ZM90.3112 92.5387C92.3025 92.3624 94.785 91.9349 95.2725 91.6799C95.43 91.6012 95.565 91.3087 95.625 90.9749L95.8012 89.9399L95.8987 89.4524L95.4112 89.5499C93.2437 89.9999 91.6012 90.1349 88.32 90.1349C85.1175 90.1349 84.7462 90.1162 83.9062 89.8237C83.5834 89.6876 83.2397 89.6077 82.89 89.5874C82.755 89.6662 82.7325 90.7799 82.8525 91.5599C82.9312 92.0287 83.01 92.1074 83.4787 92.2424C84.9637 92.6512 87.465 92.7487 90.315 92.5162L90.3112 92.5387ZM54.0637 74.9212C59.0625 73.4774 65.6062 69.2362 70.9575 63.9262C72.6975 62.1862 72.9112 61.9537 73.1437 61.1737L73.455 60.1762C73.4925 60.0974 73.1812 59.9624 72.7725 59.8649C71.7 59.6099 70.8787 58.9874 70.8787 58.4212C70.8787 58.0874 70.6837 57.7574 70.1175 57.1499C69.1987 56.1149 68.9662 55.6649 68.8687 54.6712L68.79 53.8687L67.695 53.0887C67.0687 52.6387 64.8825 51.4274 62.5575 50.2574C60.7872 49.3938 59.0544 48.4555 57.3637 47.4449C55.41 46.1362 54.1012 44.5724 53.3587 42.7199C53.2237 42.3487 53.0475 42.0374 52.9875 42.0374C52.83 42.0374 48.435 46.2749 46.56 48.2662C41.9325 53.1487 38.7487 57.3862 36.735 61.3124C36.2287 62.2874 35.6812 63.4424 35.5237 63.8699L35.2312 64.6499L35.5837 65.9587C35.7975 66.6637 36.2475 67.8149 36.6 68.4974C37.83 70.9199 39.2962 72.3824 41.7187 73.575C44.3175 74.8649 46.62 75.3149 50.4675 75.255C52.5375 75.2362 53.145 75.1762 54.06 74.9025L54.0637 74.9212ZM14.61 57.7912C17.8912 54.8812 22.4212 51.6974 27.9712 48.3974C31.605 46.2299 45.6487 39.1987 52.1137 36.3262C53.2875 35.7974 54.3412 35.3099 54.4575 35.2537C54.5737 35.1749 54.9075 34.3349 55.2187 33.3974C56.5875 29.0624 57.27 28.2037 59.7487 27.6374C60.06 27.5587 60.1387 27.4612 60.1387 27.1499C60.1387 26.5837 60.5287 25.2749 60.8625 24.6899C61.1175 24.2399 61.1175 24.2212 60.9 24.2812C60.765 24.3187 59.9437 24.5549 59.085 24.8099C47.1712 28.2487 36.7612 32.8162 27.7762 38.5199C18.1875 44.6137 12.66 51.9187 11.0587 60.6674L10.9425 61.3124L12.1162 60.1612C12.7425 59.5162 13.875 58.4624 14.6175 57.8174L14.61 57.7912ZM102.99 59.4524C103.946 58.9649 105.431 56.7187 105.979 54.9412C106.136 54.3149 106.447 53.7299 106.897 53.2424C108.341 51.6412 109.534 48.7312 109.552 46.7399C109.552 43.6349 107.794 42.4424 105.236 43.7699C104.902 43.9274 104.632 44.0437 104.591 44.0062C104.456 43.8712 105.176 43.1662 106.057 42.6187C107.209 41.8574 107.426 41.4074 107.426 39.7874C107.443 38.478 107.054 37.1955 106.312 36.1162C105.96 35.5874 105.825 35.2387 105.881 35.0212L106.234 33.7124C106.721 31.9724 106.545 29.9812 105.784 28.7137C104.651 26.8012 103.264 25.8637 101.329 25.7062L100.196 25.6274L100.86 26.3699C102.832 28.4999 103.789 31.1737 103.399 33.4612C103.204 34.6349 103.027 34.8674 101.895 35.3174L101.231 35.5912L101.31 36.4912C101.445 37.9574 101.194 39.0299 100.256 41.0024C99.7875 41.9999 99.435 42.8962 99.4762 42.9937C99.5925 43.3274 100.882 43.9499 101.899 44.2049L102.896 44.4412L102.27 44.6549C101.449 44.9099 101.272 45.2812 101.272 46.6274C101.272 47.8574 101.449 48.3674 102.345 49.7137C102.754 50.2987 103.027 50.9062 103.069 51.2549C103.147 51.8024 103.129 51.8399 102.679 51.9974C102.169 52.1406 101.644 52.2261 101.115 52.2524C99.2775 52.3687 99.1425 52.4287 98.3212 53.2087C97.5787 53.9137 97.56 53.9512 97.56 54.7312C97.56 55.8037 97.9687 57.9749 98.2237 58.2674C98.5575 58.6199 100.41 59.5387 101.134 59.6737C101.758 59.8304 102.418 59.7544 102.99 59.4599V59.4524ZM75.9375 57.9899C77.13 57.0524 78.0675 56.1149 78.5925 55.3124C78.9262 54.8249 78.945 54.7274 78.7875 54.3149C78.5137 53.6887 76.7175 52.0687 75.72 51.5812C75.0553 51.2834 74.3522 51.0802 73.6312 50.9774L72.4012 50.8199L71.64 49.8637C70.0575 47.9099 69.18 46.3874 67.9275 43.4362C66.8325 40.9349 65.8762 39.4724 64.3537 38.0249C63.7275 37.4399 63.2812 36.9524 63.3187 36.9524C63.3975 36.9524 64.14 37.3237 64.9987 37.7737C66.4237 38.5349 66.6 38.5949 67.245 38.4974C69.57 38.2237 71.6212 35.5499 72.3637 31.7999C72.5775 30.7462 73.0087 29.6699 73.4587 29.0249C73.4775 29.0062 74.3775 29.5912 75.4312 30.3524C78.1087 32.2462 78.6937 32.5387 80.2162 32.5987C81.2137 32.6362 81.78 32.5612 83.5762 32.1299C87.405 31.1924 91.545 30.8212 94.065 31.1549C95.49 31.3499 97.5412 31.9762 99.0637 32.6962C100.567 33.4012 100.86 33.4387 101.347 33.0074C101.756 32.6549 101.756 32.5987 101.756 31.2899C101.737 29.3549 101.032 27.2662 99.96 26.0174C99.4125 25.3724 97.8712 24.3187 96.345 23.5162C95.8024 23.2284 95.2624 22.9359 94.725 22.6387C94.0012 22.2074 93.1837 22.2674 90.9562 22.8524C88.3762 23.5162 87.6937 23.5162 84.7462 22.7549C82.245 22.1287 82.0912 22.1099 79.6275 22.4999C78.3187 22.6949 75.0375 22.5787 73.9425 22.2862C73.395 22.1287 72.8475 21.9749 72.3225 21.7799C71.3662 21.4087 69.705 21.3487 68.2012 21.6224C65.2125 22.1512 62.9475 23.7712 62.1262 25.9762C61.695 27.0899 61.755 27.6187 62.3212 27.9674C63.2212 28.5337 64.41 30.0787 64.41 30.6824C64.41 30.7199 64.1175 30.4687 63.7837 30.1162C62.9437 29.2387 62.1825 28.8449 61.2825 28.8449C60.7002 28.8611 60.134 29.0396 59.6476 29.3603C59.1613 29.681 58.7742 30.1311 58.53 30.6599C58.2672 31.35 58.0455 32.0549 57.8662 32.7712C57.3187 34.7624 56.8312 35.8199 55.7962 37.2262C54.8775 38.4974 54.7425 39.0637 55.0725 40.4887C55.8937 44.0812 57.3187 45.5287 63.2737 48.9074C66.3975 50.6849 67.9987 51.6824 69.1725 52.5599C70.0725 53.2237 70.0912 53.2649 70.0125 53.7712C69.8362 54.9449 70.5787 56.2124 72.045 57.2474C72.4162 57.5024 72.6487 57.7762 72.6487 57.9712C72.6487 58.3237 73.6462 58.8112 74.3662 58.8112C74.775 58.8112 75.09 58.6349 75.93 57.9899H75.9375ZM100.02 51.4049C102.285 51.4837 102.401 51.3074 101.194 49.9012C99.9225 48.4349 99.5737 47.2462 100.042 45.9374L100.237 45.4312L99.435 45.0412C99.1612 44.9062 98.8875 44.7674 98.6137 44.6699C98.4787 45.1987 98.34 45.7049 98.2237 46.2337C97.9312 47.4262 97.5787 50.5124 97.56 51.8212C97.56 51.9374 97.755 51.8999 98.0887 51.6862C98.5575 51.4124 98.7937 51.3749 100.024 51.4124L100.02 51.4049ZM92.4225 51.2887C93.7912 51.2099 95.1975 51.1124 95.5687 51.0524L96.2512 50.9549L96.33 48.7087C96.4462 45.5062 96.915 43.6124 98.3025 40.5824C99.2775 38.4337 99.7087 36.5587 99.495 35.1524C99.4162 34.5487 99.3787 34.5074 98.5575 34.1549C97.0537 33.5578 95.4876 33.1314 93.8887 32.8837C92.3475 32.6699 87.8137 32.7862 86.115 33.1199C85.41 33.2362 84.1237 33.5099 83.265 33.7237C81.135 34.2112 80.0025 34.1549 78.3825 33.4499C76.7812 32.7449 75.765 32.1037 74.8087 31.2037C74.0475 30.4987 73.9687 30.4612 73.7737 30.6974C73.6162 30.8737 73.5375 31.4024 73.4812 32.5349C73.4212 34.2749 73.1475 35.1899 72.3862 36.4199C72.2171 36.673 72.0727 36.9417 71.955 37.2224C71.955 37.2824 72.54 37.9649 73.2637 38.7074C75.765 41.3062 76.995 41.9699 78.9675 41.8312C79.6125 41.7712 80.0625 41.7937 80.0625 41.8687C80.0625 42.0262 78.7912 43.0199 78.2662 43.2937C78.0112 43.4287 77.955 43.5674 77.9925 43.8599L78.3037 45.9112C78.48 47.0849 78.615 47.6287 78.7912 47.7862C79.26 48.1762 81.6825 49.4287 83.205 50.0512C85.1962 50.8537 86.2912 51.1462 87.8137 51.2812C89.6887 51.4387 89.7262 51.4387 92.4225 51.2812V51.2887ZM76.2712 49.1399C76.3087 49.0799 76.1737 47.9474 75.9187 46.6387C75.6075 44.8612 75.4312 44.2162 75.2362 44.0399C75.1012 43.9237 74.3775 43.4137 73.6537 42.8887C72.7028 42.2049 71.8018 41.4542 70.9575 40.6424L69.6112 39.3149L68.8875 39.6862L68.1262 40.0949C68.1903 40.4 68.295 40.6952 68.4375 40.9724C68.6512 41.4412 69.0825 42.5924 69.3937 43.5299C70.215 45.9712 70.86 47.1449 72.48 49.2712L73.0837 50.0737L74.235 50.2499C74.88 50.3474 75.525 50.4862 75.7012 50.5424C75.975 50.6587 76.0125 50.6024 76.0912 49.9762C76.1287 49.7024 76.1887 49.4099 76.2675 49.1362L76.2712 49.1399ZM101.017 24.8437C102.015 24.7462 102.191 24.6074 101.76 24.1612C101.486 23.8874 100.86 23.8687 100.354 24.1012C100.02 24.2587 99.945 24.2174 99.4162 23.6512C98.8687 23.0474 98.8312 23.0249 98.145 23.1037C97.5187 23.1824 97.4212 23.1637 97.3425 22.9087C97.0986 22.4898 96.7955 22.1084 96.4425 21.7762C95.9989 21.2722 95.4443 20.8781 94.8225 20.6249C93.6112 20.1562 92.9287 20.2162 91.7737 20.8612C88.4325 22.6762 88.5712 22.6574 85.3462 21.8362C82.3387 21.0749 80.0925 20.2949 79.3687 19.8037C78.765 19.3949 77.475 18.9449 76.3987 18.8062C75.5962 18.6899 75.09 18.8662 74.3287 19.4887L73.92 19.8224L74.2912 20.4674C74.7975 21.3674 74.7412 21.4237 73.98 20.7599C73.1587 20.0774 72.1837 19.6087 71.5575 19.5862C71.1075 19.5862 69.78 20.1712 69.6225 20.4262C69.5625 20.5049 69.975 20.6024 70.5225 20.6399C71.0887 20.6999 71.8687 20.8949 72.3975 21.1087C73.7662 21.6937 74.4675 21.8887 75.7162 22.0087C77.085 22.1437 79.5637 21.9899 79.8562 21.7537C80.0137 21.6187 80.4412 21.5962 81.3412 21.6749C82.5337 21.7537 83.0212 21.8699 85.8525 22.6312C87.495 23.0812 88.6462 23.0399 90.6 22.5149C91.5 22.2599 92.6325 22.0087 93.1012 21.9487C93.9037 21.8699 94.0575 21.9112 95.31 22.4774C97.3012 23.3774 98.3587 23.9437 98.9437 24.4687C99.5287 24.9749 99.6075 24.9749 101.014 24.8587L101.017 24.8437ZM89.8837 21.4274L91.0762 20.8012L91.0387 19.5899C91.02 18.7499 90.9787 17.9287 90.9412 17.1112L90.8437 15.8624L89.6512 16.7812C88.9462 17.3287 88.2637 17.7374 87.9712 17.7974C87.1125 17.9549 82.875 17.7974 82.4812 17.5837C81.9567 17.1962 81.4661 16.7646 81.015 16.2937L79.92 15.1799L79.9012 15.8437C79.9012 16.1962 79.8637 16.7999 79.785 17.1712C79.6875 17.8762 79.6875 17.8949 80.4487 18.8512C80.8575 19.3799 81.1912 19.8487 81.1912 19.9049C81.1912 20.2762 86.835 22.0349 88.1062 22.0537C88.515 22.0537 89.025 21.8774 89.8837 21.4274ZM87.6187 16.9912C89.025 16.7174 89.7075 15.7012 90.2362 13.1249C90.7837 10.3499 91.0575 5.99619 90.8025 4.13994C90.5662 2.45994 88.6912 1.71744 85.1175 1.83369C82.89 1.91244 81.9712 2.12619 81.21 2.77119C80.7412 3.16119 80.7412 3.20244 80.5275 5.05494C80.1375 8.60994 80.7225 13.6687 81.7387 15.5624C82.2262 16.4812 82.6575 16.8112 83.5537 16.9687C84.57 17.1449 86.7375 17.1449 87.615 16.9874L87.6187 16.9912Z" fill="white"/>
    </g>
    <g id="vscode">
        <path d="M101.535 17.605L81.354 7.88899C80.2143 7.33948 78.9319 7.15814 77.6845 7.37011C76.4372 7.58208 75.2867 8.17686 74.3925 9.07199L8.32998 69.3C7.52845 70.0273 7.04865 71.0432 6.99614 72.1243C6.94363 73.2053 7.32271 74.2629 8.04998 75.0645C8.13748 75.159 8.22498 75.25 8.31948 75.334L13.713 80.234C14.4178 80.8754 15.3249 81.2497 16.277 81.2919C17.229 81.3341 18.1657 81.0416 18.9245 80.465L98.497 20.125C99.098 19.6689 99.8144 19.3897 100.566 19.3186C101.317 19.2476 102.073 19.3877 102.749 19.7231C103.424 20.0585 103.993 20.5758 104.391 21.217C104.789 21.8581 105 22.5975 105 23.352V23.1175C105 21.9656 104.675 20.8372 104.062 19.862C103.449 18.8868 102.573 18.1045 101.535 17.605Z" fill="#0065A9"/>
        <path d="M101.535 94.395L81.354 104.115C80.214 104.662 78.9319 104.843 77.6849 104.631C76.4379 104.419 75.2875 103.825 74.3925 102.932L8.32998 42.7C7.52845 41.9727 7.04865 40.9568 6.99614 39.8758C6.94363 38.7947 7.32271 37.7371 8.04998 36.9355C8.13748 36.841 8.22498 36.75 8.31948 36.666L13.713 31.766C14.4185 31.1219 15.3277 30.7459 16.2821 30.7037C17.2365 30.6615 18.1754 30.9557 18.935 31.535L98.497 91.875C99.098 92.3311 99.8144 92.6104 100.566 92.6814C101.317 92.7524 102.073 92.6123 102.749 92.2769C103.424 91.9415 103.993 91.4242 104.391 90.783C104.789 90.1419 105 89.4025 105 88.648V88.9C104.996 90.0488 104.669 91.1733 104.057 92.1451C103.444 93.1168 102.57 93.8965 101.535 94.395Z" fill="#007ACC"/>
        <path d="M81.354 104.115C80.214 104.662 78.932 104.843 77.685 104.631C76.438 104.419 75.2876 103.825 74.3925 102.932C74.8952 103.428 75.533 103.764 76.2261 103.899C76.9193 104.035 77.6369 103.962 78.289 103.691C78.9412 103.42 79.4988 102.963 79.8921 102.376C80.2855 101.79 80.4969 101.1 80.5 100.394V11.606C80.5006 10.8965 80.2906 10.2028 79.8966 9.61281C79.5026 9.02277 78.9424 8.56294 78.2868 8.29158C77.6313 8.02022 76.91 7.94953 76.2142 8.08846C75.5184 8.2274 74.8796 8.56971 74.3785 9.07204C75.2729 8.17723 76.4232 7.58242 77.6703 7.36986C78.9174 7.1573 80.1998 7.3375 81.34 7.88554L101.518 17.5875C102.559 18.0845 103.438 18.8658 104.054 19.8412C104.671 20.8166 104.998 21.9463 105 23.1V88.9C105 90.0528 104.675 91.1823 104.061 92.1582C103.448 93.1341 102.571 93.9168 101.532 94.416L81.354 104.115Z" fill="#1F9CF0"/>
    </g>
    <g id="github2">
        <path fill-rule="evenodd" clip-rule="evenodd" d="M44 0C19.69 0 0 19.69 0 44C0 63.47 12.595 79.915 30.085 85.745C32.285 86.13 33.11 84.81 33.11 83.655C33.11 82.61 33.055 79.145 33.055 75.46C22 77.495 19.14 72.765 18.26 70.29C17.765 69.025 15.62 65.12 13.75 64.075C12.21 63.25 10.01 61.215 13.695 61.16C17.16 61.105 19.635 64.35 20.46 65.67C24.42 72.325 30.745 70.455 33.275 69.3C33.66 66.44 34.815 64.515 36.08 63.415C26.29 62.315 16.06 58.52 16.06 41.69C16.06 36.905 17.765 32.945 20.57 29.865C20.13 28.765 18.59 24.255 21.01 18.205C21.01 18.205 24.695 17.05 33.11 22.715C36.63 21.725 40.37 21.23 44.11 21.23C47.85 21.23 51.59 21.725 55.11 22.715C63.525 16.995 67.21 18.205 67.21 18.205C69.63 24.255 68.09 28.765 67.65 29.865C70.455 32.945 72.16 36.85 72.16 41.69C72.16 58.575 61.875 62.315 52.085 63.415C53.68 64.79 55.055 67.43 55.055 71.555C55.055 77.44 55 82.17 55 83.655C55 84.81 55.825 86.185 58.025 85.745C66.7597 82.796 74.3497 77.1822 79.7268 69.6937C85.1039 62.2052 87.9974 53.219 88 44C88 19.69 68.31 0 44 0Z" fill="#FFFEFE"/>
    </g>
    <!--    projects-->
    <g id="github3">
        <g clip-path="url(#clip0_2_5970)">
            <path fill-rule="evenodd" clip-rule="evenodd"
                  d="M10 0C4.475 0 0 4.475 0 10C0 14.425 2.8625 18.1625 6.8375 19.4875C7.3375 19.575 7.525 19.275 7.525 19.0125C7.525 18.775 7.5125 17.9875 7.5125 17.15C5 17.6125 4.35 16.5375 4.15 15.975C4.0375 15.6875 3.55 14.8 3.125 14.5625C2.775 14.375 2.275 13.9125 3.1125 13.9C3.9 13.8875 4.4625 14.625 4.65 14.925C5.55 16.4375 6.9875 16.0125 7.5625 15.75C7.65 15.1 7.9125 14.6625 8.2 14.4125C5.975 14.1625 3.65 13.3 3.65 9.475C3.65 8.3875 4.0375 7.4875 4.675 6.7875C4.575 6.5375 4.225 5.5125 4.775 4.1375C4.775 4.1375 5.6125 3.875 7.525 5.1625C8.325 4.9375 9.175 4.825 10.025 4.825C10.875 4.825 11.725 4.9375 12.525 5.1625C14.4375 3.8625 15.275 4.1375 15.275 4.1375C15.825 5.5125 15.475 6.5375 15.375 6.7875C16.0125 7.4875 16.4 8.375 16.4 9.475C16.4 13.3125 14.0625 14.1625 11.8375 14.4125C12.2 14.725 12.5125 15.325 12.5125 16.2625C12.5125 17.6 12.5 18.675 12.5 19.0125C12.5 19.275 12.6875 19.5875 13.1875 19.4875C15.1726 18.8173 16.8976 17.5414 18.1197 15.8395C19.3418 14.1375 19.9994 12.0952 20 10C20 4.475 15.525 0 10 0Z"
                  fill="white"/>
        </g>
        <defs>
            <clipPath id="clip0_2_5970">
                <rect width="20" height="20" fill="white"/>
            </clipPath>
        </defs>
    </g>
    <g id="chain">
        <path d="M11.2867 8.71333C10.6041 8.03103 9.67846 7.64774 8.71334 7.64774C7.74821 7.64774 6.82259 8.03103 6.14 8.71333L3.56584 11.2867C2.88324 11.9693 2.49976 12.8951 2.49976 13.8604C2.49976 14.8258 2.88324 15.7516 3.56584 16.4342C4.24844 17.1168 5.17424 17.5002 6.13959 17.5002C7.10493 17.5002 8.03074 17.1168 8.71334 16.4342L10 15.1475"
              stroke="#FCFCFC" stroke-width="1.66667" stroke-linecap="round" stroke-linejoin="round"/>
        <path d="M8.71338 11.2867C9.39597 11.969 10.3216 12.3523 11.2867 12.3523C12.2518 12.3523 13.1775 11.969 13.86 11.2867L16.4342 8.71334C17.1168 8.03074 17.5003 7.10493 17.5003 6.13959C17.5003 5.17424 17.1168 4.24844 16.4342 3.56584C15.7516 2.88324 14.8258 2.49976 13.8605 2.49976C12.8951 2.49976 11.9693 2.88324 11.2867 3.56584L10 4.8525"
              stroke="#FCFCFC" stroke-width="1.66667" stroke-linecap="round" stroke-linejoin="round"/>
    </g>
</svg>
